<?xml version="1.0" encoding="utf-8" standalone="no"?>
<!DOCTYPE svg PUBLIC "-//W3C//DTD SVG 1.1//EN"
  "http://www.w3.org/Graphics/SVG/1.1/DTD/svg11.dtd">
<svg xmlns:xlink="http://www.w3.org/1999/xlink" width="1440pt" height="504pt" viewBox="0 0 1440 504" xmlns="http://www.w3.org/2000/svg" version="1.1">
 <metadata>
  <rdf:RDF xmlns:dc="http://purl.org/dc/elements/1.1/" xmlns:cc="http://creativecommons.org/ns#" xmlns:rdf="http://www.w3.org/1999/02/22-rdf-syntax-ns#">
   <cc:Work>
    <dc:type rdf:resource="http://purl.org/dc/dcmitype/StillImage"/>
    <dc:date>2023-10-20T14:41:02.634633</dc:date>
    <dc:format>image/svg+xml</dc:format>
    <dc:creator>
     <cc:Agent>
      <dc:title>Matplotlib v3.5.3, https://matplotlib.org/</dc:title>
     </cc:Agent>
    </dc:creator>
   </cc:Work>
  </rdf:RDF>
 </metadata>
 <defs>
  <style type="text/css">*{stroke-linejoin: round; stroke-linecap: butt}</style>
 </defs>
 <g id="figure_1">
  <g id="patch_1">
   <path d="M 0 504 
L 1440 504 
L 1440 0 
L 0 0 
L 0 504 
z
" style="fill: none"/>
  </g>
  <g id="axes_1">
   <g id="patch_2">
    <path d="M 180 448.56 
L 508.235294 448.56 
L 508.235294 60.48 
L 180 60.48 
L 180 448.56 
z
" style="fill: none"/>
   </g>
   <g id="PolyCollection_1">
    <path d="M 181.919505 216450.297172 
L 181.919505 78.12 
L 186.718266 79.795387 
L 191.517028 84.770207 
L 196.315789 90.661024 
L 201.114551 97.174716 
L 205.913313 106.348506 
L 210.712074 116.701005 
L 215.510836 127.508445 
L 220.309598 136.773877 
L 225.108359 143.152397 
L 229.907121 148.379981 
L 234.705882 153.0672 
L 239.504644 158.827845 
L 244.303406 165.221032 
L 249.102167 173.142912 
L 253.900929 185.188224 
L 258.69969 200.036799 
L 263.498452 217.100503 
L 268.297214 234.779068 
L 273.095975 247.801096 
L 277.894737 255.556976 
L 282.693498 261.175487 
L 282.693498 216450.297172 
L 282.693498 216450.297172 
L 277.894737 216450.297172 
L 273.095975 216450.297172 
L 268.297214 216450.297172 
L 263.498452 216450.297172 
L 258.69969 216450.297172 
L 253.900929 216450.297172 
L 249.102167 216450.297172 
L 244.303406 216450.297172 
L 239.504644 216450.297172 
L 234.705882 216450.297172 
L 229.907121 216450.297172 
L 225.108359 216450.297172 
L 220.309598 216450.297172 
L 215.510836 216450.297172 
L 210.712074 216450.297172 
L 205.913313 216450.297172 
L 201.114551 216450.297172 
L 196.315789 216450.297172 
L 191.517028 216450.297172 
L 186.718266 216450.297172 
L 181.919505 216450.297172 
z
" clip-path="url(#pe3ab7cd386)" style="fill: #b61319; fill-opacity: 0.3; stroke: #b61319; stroke-opacity: 0.3"/>
   </g>
   <g id="PolyCollection_2">
    <path d="M 282.693498 216450.297172 
L 282.693498 261.175487 
L 287.49226 264.766289 
L 292.291022 265.213611 
L 297.089783 266.484923 
L 301.888545 271.060115 
L 306.687307 275.063401 
L 311.486068 276.666189 
L 316.28483 278.590181 
L 321.083591 282.900333 
L 325.882353 288.745377 
L 330.681115 293.828105 
L 335.479876 296.208642 
L 340.278638 296.897647 
L 345.077399 296.817386 
L 349.876161 293.078289 
L 354.674923 285.929616 
L 359.473684 281.59971 
L 364.272446 283.7314 
L 369.071207 289.604626 
L 373.869969 295.671692 
L 378.668731 300.854194 
L 383.467492 305.384195 
L 388.266254 309.204346 
L 393.065015 310.885274 
L 397.863777 311.024332 
L 402.662539 312.93056 
L 407.4613 318.803558 
L 412.260062 327.821477 
L 417.058824 336.668656 
L 421.857585 342.329434 
L 426.656347 344.017665 
L 431.455108 343.551333 
L 436.25387 344.947092 
L 441.052632 349.133255 
L 445.851393 353.941382 
L 450.650155 361.992924 
L 455.448916 374.992429 
L 460.247678 386.143738 
L 465.04644 389.450449 
L 469.845201 386.196127 
L 474.643963 382.0703 
L 479.442724 379.207198 
L 484.241486 378.040665 
L 489.040248 380.810989 
L 493.839009 384.507151 
L 498.637771 386.837383 
L 503.436533 389.634816 
L 508.235294 391.25901 
L 508.235294 216450.297172 
L 508.235294 216450.297172 
L 503.436533 216450.297172 
L 498.637771 216450.297172 
L 493.839009 216450.297172 
L 489.040248 216450.297172 
L 484.241486 216450.297172 
L 479.442724 216450.297172 
L 474.643963 216450.297172 
L 469.845201 216450.297172 
L 465.04644 216450.297172 
L 460.247678 216450.297172 
L 455.448916 216450.297172 
L 450.650155 216450.297172 
L 445.851393 216450.297172 
L 441.052632 216450.297172 
L 436.25387 216450.297172 
L 431.455108 216450.297172 
L 426.656347 216450.297172 
L 421.857585 216450.297172 
L 417.058824 216450.297172 
L 412.260062 216450.297172 
L 407.4613 216450.297172 
L 402.662539 216450.297172 
L 397.863777 216450.297172 
L 393.065015 216450.297172 
L 388.266254 216450.297172 
L 383.467492 216450.297172 
L 378.668731 216450.297172 
L 373.869969 216450.297172 
L 369.071207 216450.297172 
L 364.272446 216450.297172 
L 359.473684 216450.297172 
L 354.674923 216450.297172 
L 349.876161 216450.297172 
L 345.077399 216450.297172 
L 340.278638 216450.297172 
L 335.479876 216450.297172 
L 330.681115 216450.297172 
L 325.882353 216450.297172 
L 321.083591 216450.297172 
L 316.28483 216450.297172 
L 311.486068 216450.297172 
L 306.687307 216450.297172 
L 301.888545 216450.297172 
L 297.089783 216450.297172 
L 292.291022 216450.297172 
L 287.49226 216450.297172 
L 282.693498 216450.297172 
z
" clip-path="url(#pe3ab7cd386)" style="fill: #67000d; fill-opacity: 0.3; stroke: #67000d; stroke-opacity: 0.3"/>
   </g>
   <g id="matplotlib.axis_1">
    <g id="xtick_1">
     <g id="line2d_1">
      <defs>
       <path id="m1e64ee4c43" d="M 0 0 
L 0 3.5 
" style="stroke: #000000; stroke-width: 0.8"/>
      </defs>
      <g>
       <use xlink:href="#m1e64ee4c43" x="234.705882" y="448.56" style="stroke: #000000; stroke-width: 0.8"/>
      </g>
     </g>
     <g id="text_1">
      <!-- 0.1 -->
      <g transform="translate(218.802757 470.756875)scale(0.2 -0.2)">
       <defs>
        <path id="DejaVuSans-30" d="M 2034 4250 
Q 1547 4250 1301 3770 
Q 1056 3291 1056 2328 
Q 1056 1369 1301 889 
Q 1547 409 2034 409 
Q 2525 409 2770 889 
Q 3016 1369 3016 2328 
Q 3016 3291 2770 3770 
Q 2525 4250 2034 4250 
z
M 2034 4750 
Q 2819 4750 3233 4129 
Q 3647 3509 3647 2328 
Q 3647 1150 3233 529 
Q 2819 -91 2034 -91 
Q 1250 -91 836 529 
Q 422 1150 422 2328 
Q 422 3509 836 4129 
Q 1250 4750 2034 4750 
z
" transform="scale(0.015625)"/>
        <path id="DejaVuSans-2e" d="M 684 794 
L 1344 794 
L 1344 0 
L 684 0 
L 684 794 
z
" transform="scale(0.015625)"/>
        <path id="DejaVuSans-31" d="M 794 531 
L 1825 531 
L 1825 4091 
L 703 3866 
L 703 4441 
L 1819 4666 
L 2450 4666 
L 2450 531 
L 3481 531 
L 3481 0 
L 794 0 
L 794 531 
z
" transform="scale(0.015625)"/>
       </defs>
       <use xlink:href="#DejaVuSans-30"/>
       <use xlink:href="#DejaVuSans-2e" x="63.623047"/>
       <use xlink:href="#DejaVuSans-31" x="95.410156"/>
      </g>
     </g>
    </g>
    <g id="xtick_2">
     <g id="line2d_2">
      <g>
       <use xlink:href="#m1e64ee4c43" x="325.882353" y="448.56" style="stroke: #000000; stroke-width: 0.8"/>
      </g>
     </g>
     <g id="text_2">
      <!-- 0.2 -->
      <g transform="translate(309.979228 470.756875)scale(0.2 -0.2)">
       <defs>
        <path id="DejaVuSans-32" d="M 1228 531 
L 3431 531 
L 3431 0 
L 469 0 
L 469 531 
Q 828 903 1448 1529 
Q 2069 2156 2228 2338 
Q 2531 2678 2651 2914 
Q 2772 3150 2772 3378 
Q 2772 3750 2511 3984 
Q 2250 4219 1831 4219 
Q 1534 4219 1204 4116 
Q 875 4013 500 3803 
L 500 4441 
Q 881 4594 1212 4672 
Q 1544 4750 1819 4750 
Q 2544 4750 2975 4387 
Q 3406 4025 3406 3419 
Q 3406 3131 3298 2873 
Q 3191 2616 2906 2266 
Q 2828 2175 2409 1742 
Q 1991 1309 1228 531 
z
" transform="scale(0.015625)"/>
       </defs>
       <use xlink:href="#DejaVuSans-30"/>
       <use xlink:href="#DejaVuSans-2e" x="63.623047"/>
       <use xlink:href="#DejaVuSans-32" x="95.410156"/>
      </g>
     </g>
    </g>
    <g id="xtick_3">
     <g id="line2d_3">
      <g>
       <use xlink:href="#m1e64ee4c43" x="417.058824" y="448.56" style="stroke: #000000; stroke-width: 0.8"/>
      </g>
     </g>
     <g id="text_3">
      <!-- 0.3 -->
      <g transform="translate(401.155699 470.756875)scale(0.2 -0.2)">
       <defs>
        <path id="DejaVuSans-33" d="M 2597 2516 
Q 3050 2419 3304 2112 
Q 3559 1806 3559 1356 
Q 3559 666 3084 287 
Q 2609 -91 1734 -91 
Q 1441 -91 1130 -33 
Q 819 25 488 141 
L 488 750 
Q 750 597 1062 519 
Q 1375 441 1716 441 
Q 2309 441 2620 675 
Q 2931 909 2931 1356 
Q 2931 1769 2642 2001 
Q 2353 2234 1838 2234 
L 1294 2234 
L 1294 2753 
L 1863 2753 
Q 2328 2753 2575 2939 
Q 2822 3125 2822 3475 
Q 2822 3834 2567 4026 
Q 2313 4219 1838 4219 
Q 1578 4219 1281 4162 
Q 984 4106 628 3988 
L 628 4550 
Q 988 4650 1302 4700 
Q 1616 4750 1894 4750 
Q 2613 4750 3031 4423 
Q 3450 4097 3450 3541 
Q 3450 3153 3228 2886 
Q 3006 2619 2597 2516 
z
" transform="scale(0.015625)"/>
       </defs>
       <use xlink:href="#DejaVuSans-30"/>
       <use xlink:href="#DejaVuSans-2e" x="63.623047"/>
       <use xlink:href="#DejaVuSans-33" x="95.410156"/>
      </g>
     </g>
    </g>
    <g id="xtick_4">
     <g id="line2d_4">
      <g>
       <use xlink:href="#m1e64ee4c43" x="508.235294" y="448.56" style="stroke: #000000; stroke-width: 0.8"/>
      </g>
     </g>
     <g id="text_4">
      <!-- 0.4 -->
      <g transform="translate(492.332169 470.756875)scale(0.2 -0.2)">
       <defs>
        <path id="DejaVuSans-34" d="M 2419 4116 
L 825 1625 
L 2419 1625 
L 2419 4116 
z
M 2253 4666 
L 3047 4666 
L 3047 1625 
L 3713 1625 
L 3713 1100 
L 3047 1100 
L 3047 0 
L 2419 0 
L 2419 1100 
L 313 1100 
L 313 1709 
L 2253 4666 
z
" transform="scale(0.015625)"/>
       </defs>
       <use xlink:href="#DejaVuSans-30"/>
       <use xlink:href="#DejaVuSans-2e" x="63.623047"/>
       <use xlink:href="#DejaVuSans-34" x="95.410156"/>
      </g>
     </g>
    </g>
   </g>
   <g id="matplotlib.axis_2">
    <g id="ytick_1">
     <g id="line2d_5">
      <defs>
       <path id="m2551d2c9a5" d="M 0 0 
L -3.5 0 
" style="stroke: #000000; stroke-width: 0.8"/>
      </defs>
      <g>
       <use xlink:href="#m2551d2c9a5" x="180" y="265.29849" style="stroke: #000000; stroke-width: 0.8"/>
      </g>
     </g>
     <g id="text_5">
      <!-- $\mathdefault{10^{0}}$ -->
      <g transform="translate(137.8 272.896927)scale(0.2 -0.2)">
       <use xlink:href="#DejaVuSans-31" transform="translate(0 0.765625)"/>
       <use xlink:href="#DejaVuSans-30" transform="translate(63.623047 0.765625)"/>
       <use xlink:href="#DejaVuSans-30" transform="translate(128.203125 39.046875)scale(0.7)"/>
      </g>
     </g>
    </g>
    <g id="ytick_2">
     <g id="line2d_6">
      <defs>
       <path id="mc6b7739749" d="M 0 0 
L -2 0 
" style="stroke: #000000; stroke-width: 0.6"/>
      </defs>
      <g>
       <use xlink:href="#mc6b7739749" x="180" y="416.405319" style="stroke: #000000; stroke-width: 0.6"/>
      </g>
     </g>
    </g>
    <g id="ytick_3">
     <g id="line2d_7">
      <g>
       <use xlink:href="#mc6b7739749" x="180" y="378.337031" style="stroke: #000000; stroke-width: 0.6"/>
      </g>
     </g>
    </g>
    <g id="ytick_4">
     <g id="line2d_8">
      <g>
       <use xlink:href="#mc6b7739749" x="180" y="351.32715" style="stroke: #000000; stroke-width: 0.6"/>
      </g>
     </g>
    </g>
    <g id="ytick_5">
     <g id="line2d_9">
      <g>
       <use xlink:href="#mc6b7739749" x="180" y="330.376659" style="stroke: #000000; stroke-width: 0.6"/>
      </g>
     </g>
    </g>
    <g id="ytick_6">
     <g id="line2d_10">
      <g>
       <use xlink:href="#mc6b7739749" x="180" y="313.258861" style="stroke: #000000; stroke-width: 0.6"/>
      </g>
     </g>
    </g>
    <g id="ytick_7">
     <g id="line2d_11">
      <g>
       <use xlink:href="#mc6b7739749" x="180" y="298.78597" style="stroke: #000000; stroke-width: 0.6"/>
      </g>
     </g>
    </g>
    <g id="ytick_8">
     <g id="line2d_12">
      <g>
       <use xlink:href="#mc6b7739749" x="180" y="286.248981" style="stroke: #000000; stroke-width: 0.6"/>
      </g>
     </g>
    </g>
    <g id="ytick_9">
     <g id="line2d_13">
      <g>
       <use xlink:href="#mc6b7739749" x="180" y="275.190573" style="stroke: #000000; stroke-width: 0.6"/>
      </g>
     </g>
    </g>
    <g id="ytick_10">
     <g id="line2d_14">
      <g>
       <use xlink:href="#mc6b7739749" x="180" y="200.220321" style="stroke: #000000; stroke-width: 0.6"/>
      </g>
     </g>
    </g>
    <g id="ytick_11">
     <g id="line2d_15">
      <g>
       <use xlink:href="#mc6b7739749" x="180" y="162.152032" style="stroke: #000000; stroke-width: 0.6"/>
      </g>
     </g>
    </g>
    <g id="ytick_12">
     <g id="line2d_16">
      <g>
       <use xlink:href="#mc6b7739749" x="180" y="135.142151" style="stroke: #000000; stroke-width: 0.6"/>
      </g>
     </g>
    </g>
    <g id="ytick_13">
     <g id="line2d_17">
      <g>
       <use xlink:href="#mc6b7739749" x="180" y="114.19166" style="stroke: #000000; stroke-width: 0.6"/>
      </g>
     </g>
    </g>
    <g id="ytick_14">
     <g id="line2d_18">
      <g>
       <use xlink:href="#mc6b7739749" x="180" y="97.073863" style="stroke: #000000; stroke-width: 0.6"/>
      </g>
     </g>
    </g>
    <g id="ytick_15">
     <g id="line2d_19">
      <g>
       <use xlink:href="#mc6b7739749" x="180" y="82.600971" style="stroke: #000000; stroke-width: 0.6"/>
      </g>
     </g>
    </g>
    <g id="ytick_16">
     <g id="line2d_20">
      <g>
       <use xlink:href="#mc6b7739749" x="180" y="70.063982" style="stroke: #000000; stroke-width: 0.6"/>
      </g>
     </g>
    </g>
   </g>
   <g id="line2d_21">
    <path d="M 181.919505 78.12 
L 186.718266 79.795387 
L 191.517028 84.770207 
L 196.315789 90.661024 
L 201.114551 97.174716 
L 205.913313 106.348506 
L 210.712074 116.701005 
L 215.510836 127.508445 
L 220.309598 136.773877 
L 225.108359 143.152397 
L 229.907121 148.379981 
L 234.705882 153.0672 
L 239.504644 158.827845 
L 244.303406 165.221032 
L 249.102167 173.142912 
L 253.900929 185.188224 
L 258.69969 200.036799 
L 263.498452 217.100503 
L 268.297214 234.779068 
L 273.095975 247.801096 
L 277.894737 255.556976 
L 282.693498 261.175487 
L 287.49226 264.766289 
L 292.291022 265.213611 
L 297.089783 266.484923 
L 301.888545 271.060115 
L 306.687307 275.063401 
L 311.486068 276.666189 
L 316.28483 278.590181 
L 321.083591 282.900333 
L 325.882353 288.745377 
L 330.681115 293.828105 
L 335.479876 296.208642 
L 340.278638 296.897647 
L 345.077399 296.817386 
L 349.876161 293.078289 
L 354.674923 285.929616 
L 359.473684 281.59971 
L 364.272446 283.7314 
L 369.071207 289.604626 
L 373.869969 295.671692 
L 378.668731 300.854194 
L 383.467492 305.384195 
L 388.266254 309.204346 
L 393.065015 310.885274 
L 397.863777 311.024332 
L 402.662539 312.93056 
L 407.4613 318.803558 
L 412.260062 327.821477 
L 417.058824 336.668656 
L 421.857585 342.329434 
L 426.656347 344.017665 
L 431.455108 343.551333 
L 436.25387 344.947092 
L 441.052632 349.133255 
L 445.851393 353.941382 
L 450.650155 361.992924 
L 455.448916 374.992429 
L 460.247678 386.143738 
L 465.04644 389.450449 
L 469.845201 386.196127 
L 474.643963 382.0703 
L 479.442724 379.207198 
L 484.241486 378.040665 
L 489.040248 380.810989 
L 493.839009 384.507151 
L 498.637771 386.837383 
L 503.436533 389.634816 
L 508.235294 391.25901 
" clip-path="url(#pe3ab7cd386)" style="fill: none; stroke: #67000d; stroke-width: 1.5; stroke-linecap: square"/>
   </g>
   <g id="patch_3">
    <path d="M 180 448.56 
L 180 60.48 
" style="fill: none; stroke: #000000; stroke-width: 2; stroke-linejoin: miter; stroke-linecap: square"/>
   </g>
   <g id="patch_4">
    <path d="M 180 448.56 
L 508.235294 448.56 
" style="fill: none; stroke: #000000; stroke-width: 2; stroke-linejoin: miter; stroke-linecap: square"/>
   </g>
  </g>
  <g id="axes_2">
   <g id="patch_5">
    <path d="M 573.882353 448.56 
L 902.117647 448.56 
L 902.117647 60.48 
L 573.882353 60.48 
L 573.882353 448.56 
z
" style="fill: none"/>
   </g>
   <g id="PolyCollection_3">
    <path d="M 575.801858 216450.297172 
L 575.801858 120.936986 
L 580.600619 121.611009 
L 585.399381 123.733837 
L 590.198142 126.478934 
L 594.996904 129.397712 
L 599.795666 133.049312 
L 604.594427 136.782085 
L 609.393189 140.02701 
L 614.19195 143.515224 
L 618.990712 148.828184 
L 623.789474 156.299633 
L 628.588235 164.566079 
L 633.386997 173.365301 
L 638.185759 183.763714 
L 642.98452 195.656796 
L 647.783282 206.003227 
L 652.582043 214.364168 
L 657.380805 224.381836 
L 662.179567 236.136114 
L 666.978328 247.011393 
L 671.77709 255.037634 
L 676.575851 259.281708 
L 676.575851 216450.297172 
L 676.575851 216450.297172 
L 671.77709 216450.297172 
L 666.978328 216450.297172 
L 662.179567 216450.297172 
L 657.380805 216450.297172 
L 652.582043 216450.297172 
L 647.783282 216450.297172 
L 642.98452 216450.297172 
L 638.185759 216450.297172 
L 633.386997 216450.297172 
L 628.588235 216450.297172 
L 623.789474 216450.297172 
L 618.990712 216450.297172 
L 614.19195 216450.297172 
L 609.393189 216450.297172 
L 604.594427 216450.297172 
L 599.795666 216450.297172 
L 594.996904 216450.297172 
L 590.198142 216450.297172 
L 585.399381 216450.297172 
L 580.600619 216450.297172 
L 575.801858 216450.297172 
z
" clip-path="url(#pdfeae999ef)" style="fill: #b61319; fill-opacity: 0.3; stroke: #b61319; stroke-opacity: 0.3"/>
   </g>
   <g id="PolyCollection_4">
    <path d="M 676.575851 216450.297172 
L 676.575851 259.281708 
L 681.374613 261.079935 
L 686.173375 262.562858 
L 690.972136 263.268122 
L 695.770898 259.572051 
L 700.569659 251.502356 
L 705.368421 242.886369 
L 710.167183 234.681508 
L 714.965944 225.878615 
L 719.764706 217.876812 
L 724.563467 213.764626 
L 729.362229 214.044937 
L 734.160991 217.387072 
L 738.959752 222.967664 
L 743.758514 229.939267 
L 748.557276 236.457026 
L 753.356037 240.226386 
L 758.154799 242.286401 
L 762.95356 244.959096 
L 767.752322 247.545327 
L 772.551084 250.655506 
L 777.349845 256.443947 
L 782.148607 264.334291 
L 786.947368 271.09336 
L 791.74613 275.450624 
L 796.544892 280.592149 
L 801.343653 286.031612 
L 806.142415 288.742697 
L 810.941176 290.653262 
L 815.739938 294.405484 
L 820.5387 299.872612 
L 825.337461 305.890723 
L 830.136223 312.993822 
L 834.934985 321.360775 
L 839.733746 330.570055 
L 844.532508 341.45739 
L 849.331269 352.138314 
L 854.130031 360.429688 
L 858.928793 366.281584 
L 863.727554 369.742966 
L 868.526316 373.056246 
L 873.325077 377.770629 
L 878.123839 382.739017 
L 882.922601 385.644776 
L 887.721362 387.084855 
L 892.520124 389.099878 
L 897.318885 390.490133 
L 902.117647 390.727351 
L 902.117647 216450.297172 
L 902.117647 216450.297172 
L 897.318885 216450.297172 
L 892.520124 216450.297172 
L 887.721362 216450.297172 
L 882.922601 216450.297172 
L 878.123839 216450.297172 
L 873.325077 216450.297172 
L 868.526316 216450.297172 
L 863.727554 216450.297172 
L 858.928793 216450.297172 
L 854.130031 216450.297172 
L 849.331269 216450.297172 
L 844.532508 216450.297172 
L 839.733746 216450.297172 
L 834.934985 216450.297172 
L 830.136223 216450.297172 
L 825.337461 216450.297172 
L 820.5387 216450.297172 
L 815.739938 216450.297172 
L 810.941176 216450.297172 
L 806.142415 216450.297172 
L 801.343653 216450.297172 
L 796.544892 216450.297172 
L 791.74613 216450.297172 
L 786.947368 216450.297172 
L 782.148607 216450.297172 
L 777.349845 216450.297172 
L 772.551084 216450.297172 
L 767.752322 216450.297172 
L 762.95356 216450.297172 
L 758.154799 216450.297172 
L 753.356037 216450.297172 
L 748.557276 216450.297172 
L 743.758514 216450.297172 
L 738.959752 216450.297172 
L 734.160991 216450.297172 
L 729.362229 216450.297172 
L 724.563467 216450.297172 
L 719.764706 216450.297172 
L 714.965944 216450.297172 
L 710.167183 216450.297172 
L 705.368421 216450.297172 
L 700.569659 216450.297172 
L 695.770898 216450.297172 
L 690.972136 216450.297172 
L 686.173375 216450.297172 
L 681.374613 216450.297172 
L 676.575851 216450.297172 
z
" clip-path="url(#pdfeae999ef)" style="fill: #67000d; fill-opacity: 0.3; stroke: #67000d; stroke-opacity: 0.3"/>
   </g>
   <g id="matplotlib.axis_3">
    <g id="xtick_5">
     <g id="line2d_22">
      <g>
       <use xlink:href="#m1e64ee4c43" x="628.588235" y="448.56" style="stroke: #000000; stroke-width: 0.8"/>
      </g>
     </g>
     <g id="text_6">
      <!-- 0.1 -->
      <g transform="translate(612.68511 470.756875)scale(0.2 -0.2)">
       <use xlink:href="#DejaVuSans-30"/>
       <use xlink:href="#DejaVuSans-2e" x="63.623047"/>
       <use xlink:href="#DejaVuSans-31" x="95.410156"/>
      </g>
     </g>
    </g>
    <g id="xtick_6">
     <g id="line2d_23">
      <g>
       <use xlink:href="#m1e64ee4c43" x="719.764706" y="448.56" style="stroke: #000000; stroke-width: 0.8"/>
      </g>
     </g>
     <g id="text_7">
      <!-- 0.2 -->
      <g transform="translate(703.861581 470.756875)scale(0.2 -0.2)">
       <use xlink:href="#DejaVuSans-30"/>
       <use xlink:href="#DejaVuSans-2e" x="63.623047"/>
       <use xlink:href="#DejaVuSans-32" x="95.410156"/>
      </g>
     </g>
    </g>
    <g id="xtick_7">
     <g id="line2d_24">
      <g>
       <use xlink:href="#m1e64ee4c43" x="810.941176" y="448.56" style="stroke: #000000; stroke-width: 0.8"/>
      </g>
     </g>
     <g id="text_8">
      <!-- 0.3 -->
      <g transform="translate(795.038051 470.756875)scale(0.2 -0.2)">
       <use xlink:href="#DejaVuSans-30"/>
       <use xlink:href="#DejaVuSans-2e" x="63.623047"/>
       <use xlink:href="#DejaVuSans-33" x="95.410156"/>
      </g>
     </g>
    </g>
    <g id="xtick_8">
     <g id="line2d_25">
      <g>
       <use xlink:href="#m1e64ee4c43" x="902.117647" y="448.56" style="stroke: #000000; stroke-width: 0.8"/>
      </g>
     </g>
     <g id="text_9">
      <!-- 0.4 -->
      <g transform="translate(886.214522 470.756875)scale(0.2 -0.2)">
       <use xlink:href="#DejaVuSans-30"/>
       <use xlink:href="#DejaVuSans-2e" x="63.623047"/>
       <use xlink:href="#DejaVuSans-34" x="95.410156"/>
      </g>
     </g>
    </g>
   </g>
   <g id="matplotlib.axis_4">
    <g id="ytick_17">
     <g id="line2d_26">
      <g>
       <use xlink:href="#m2551d2c9a5" x="573.882353" y="265.29849" style="stroke: #000000; stroke-width: 0.8"/>
      </g>
     </g>
    </g>
    <g id="ytick_18">
     <g id="line2d_27">
      <g>
       <use xlink:href="#mc6b7739749" x="573.882353" y="416.405319" style="stroke: #000000; stroke-width: 0.6"/>
      </g>
     </g>
    </g>
    <g id="ytick_19">
     <g id="line2d_28">
      <g>
       <use xlink:href="#mc6b7739749" x="573.882353" y="378.337031" style="stroke: #000000; stroke-width: 0.6"/>
      </g>
     </g>
    </g>
    <g id="ytick_20">
     <g id="line2d_29">
      <g>
       <use xlink:href="#mc6b7739749" x="573.882353" y="351.32715" style="stroke: #000000; stroke-width: 0.6"/>
      </g>
     </g>
    </g>
    <g id="ytick_21">
     <g id="line2d_30">
      <g>
       <use xlink:href="#mc6b7739749" x="573.882353" y="330.376659" style="stroke: #000000; stroke-width: 0.6"/>
      </g>
     </g>
    </g>
    <g id="ytick_22">
     <g id="line2d_31">
      <g>
       <use xlink:href="#mc6b7739749" x="573.882353" y="313.258861" style="stroke: #000000; stroke-width: 0.6"/>
      </g>
     </g>
    </g>
    <g id="ytick_23">
     <g id="line2d_32">
      <g>
       <use xlink:href="#mc6b7739749" x="573.882353" y="298.78597" style="stroke: #000000; stroke-width: 0.6"/>
      </g>
     </g>
    </g>
    <g id="ytick_24">
     <g id="line2d_33">
      <g>
       <use xlink:href="#mc6b7739749" x="573.882353" y="286.248981" style="stroke: #000000; stroke-width: 0.6"/>
      </g>
     </g>
    </g>
    <g id="ytick_25">
     <g id="line2d_34">
      <g>
       <use xlink:href="#mc6b7739749" x="573.882353" y="275.190573" style="stroke: #000000; stroke-width: 0.6"/>
      </g>
     </g>
    </g>
    <g id="ytick_26">
     <g id="line2d_35">
      <g>
       <use xlink:href="#mc6b7739749" x="573.882353" y="200.220321" style="stroke: #000000; stroke-width: 0.6"/>
      </g>
     </g>
    </g>
    <g id="ytick_27">
     <g id="line2d_36">
      <g>
       <use xlink:href="#mc6b7739749" x="573.882353" y="162.152032" style="stroke: #000000; stroke-width: 0.6"/>
      </g>
     </g>
    </g>
    <g id="ytick_28">
     <g id="line2d_37">
      <g>
       <use xlink:href="#mc6b7739749" x="573.882353" y="135.142151" style="stroke: #000000; stroke-width: 0.6"/>
      </g>
     </g>
    </g>
    <g id="ytick_29">
     <g id="line2d_38">
      <g>
       <use xlink:href="#mc6b7739749" x="573.882353" y="114.19166" style="stroke: #000000; stroke-width: 0.6"/>
      </g>
     </g>
    </g>
    <g id="ytick_30">
     <g id="line2d_39">
      <g>
       <use xlink:href="#mc6b7739749" x="573.882353" y="97.073863" style="stroke: #000000; stroke-width: 0.6"/>
      </g>
     </g>
    </g>
    <g id="ytick_31">
     <g id="line2d_40">
      <g>
       <use xlink:href="#mc6b7739749" x="573.882353" y="82.600971" style="stroke: #000000; stroke-width: 0.6"/>
      </g>
     </g>
    </g>
    <g id="ytick_32">
     <g id="line2d_41">
      <g>
       <use xlink:href="#mc6b7739749" x="573.882353" y="70.063982" style="stroke: #000000; stroke-width: 0.6"/>
      </g>
     </g>
    </g>
   </g>
   <g id="line2d_42">
    <path d="M 575.801858 120.936986 
L 580.600619 121.611009 
L 585.399381 123.733837 
L 590.198142 126.478934 
L 594.996904 129.397712 
L 599.795666 133.049312 
L 604.594427 136.782085 
L 609.393189 140.02701 
L 614.19195 143.515224 
L 618.990712 148.828184 
L 623.789474 156.299633 
L 628.588235 164.566079 
L 633.386997 173.365301 
L 638.185759 183.763714 
L 642.98452 195.656796 
L 647.783282 206.003227 
L 652.582043 214.364168 
L 657.380805 224.381836 
L 662.179567 236.136114 
L 666.978328 247.011393 
L 671.77709 255.037634 
L 676.575851 259.281708 
L 681.374613 261.079935 
L 686.173375 262.562858 
L 690.972136 263.268122 
L 695.770898 259.572051 
L 700.569659 251.502356 
L 705.368421 242.886369 
L 710.167183 234.681508 
L 714.965944 225.878615 
L 719.764706 217.876812 
L 724.563467 213.764626 
L 729.362229 214.044937 
L 734.160991 217.387072 
L 738.959752 222.967664 
L 743.758514 229.939267 
L 748.557276 236.457026 
L 753.356037 240.226386 
L 758.154799 242.286401 
L 762.95356 244.959096 
L 767.752322 247.545327 
L 772.551084 250.655506 
L 777.349845 256.443947 
L 782.148607 264.334291 
L 786.947368 271.09336 
L 791.74613 275.450624 
L 796.544892 280.592149 
L 801.343653 286.031612 
L 806.142415 288.742697 
L 810.941176 290.653262 
L 815.739938 294.405484 
L 820.5387 299.872612 
L 825.337461 305.890723 
L 830.136223 312.993822 
L 834.934985 321.360775 
L 839.733746 330.570055 
L 844.532508 341.45739 
L 849.331269 352.138314 
L 854.130031 360.429688 
L 858.928793 366.281584 
L 863.727554 369.742966 
L 868.526316 373.056246 
L 873.325077 377.770629 
L 878.123839 382.739017 
L 882.922601 385.644776 
L 887.721362 387.084855 
L 892.520124 389.099878 
L 897.318885 390.490133 
L 902.117647 390.727351 
" clip-path="url(#pdfeae999ef)" style="fill: none; stroke: #67000d; stroke-width: 1.5; stroke-linecap: square"/>
   </g>
   <g id="patch_6">
    <path d="M 573.882353 448.56 
L 573.882353 60.48 
" style="fill: none; stroke: #000000; stroke-width: 2; stroke-linejoin: miter; stroke-linecap: square"/>
   </g>
   <g id="patch_7">
    <path d="M 573.882353 448.56 
L 902.117647 448.56 
" style="fill: none; stroke: #000000; stroke-width: 2; stroke-linejoin: miter; stroke-linecap: square"/>
   </g>
  </g>
  <g id="axes_3">
   <g id="patch_8">
    <path d="M 967.764706 448.56 
L 1296 448.56 
L 1296 60.48 
L 967.764706 60.48 
L 967.764706 448.56 
z
" style="fill: none"/>
   </g>
   <g id="PolyCollection_5">
    <path d="M 969.684211 216450.297172 
L 969.684211 87.932976 
L 974.482972 88.588405 
L 979.281734 91.870587 
L 984.080495 97.504981 
L 988.879257 103.657618 
L 993.678019 109.461664 
L 998.47678 113.350642 
L 1003.275542 117.159485 
L 1008.074303 121.690002 
L 1012.873065 124.463483 
L 1017.671827 127.905168 
L 1022.470588 136.230328 
L 1027.26935 148.947856 
L 1032.068111 161.826365 
L 1036.866873 173.481852 
L 1041.665635 187.04927 
L 1046.464396 203.363725 
L 1051.263158 217.33875 
L 1056.06192 227.12426 
L 1060.860681 237.052846 
L 1065.659443 244.802961 
L 1070.458204 248.139634 
L 1070.458204 216450.297172 
L 1070.458204 216450.297172 
L 1065.659443 216450.297172 
L 1060.860681 216450.297172 
L 1056.06192 216450.297172 
L 1051.263158 216450.297172 
L 1046.464396 216450.297172 
L 1041.665635 216450.297172 
L 1036.866873 216450.297172 
L 1032.068111 216450.297172 
L 1027.26935 216450.297172 
L 1022.470588 216450.297172 
L 1017.671827 216450.297172 
L 1012.873065 216450.297172 
L 1008.074303 216450.297172 
L 1003.275542 216450.297172 
L 998.47678 216450.297172 
L 993.678019 216450.297172 
L 988.879257 216450.297172 
L 984.080495 216450.297172 
L 979.281734 216450.297172 
L 974.482972 216450.297172 
L 969.684211 216450.297172 
z
" clip-path="url(#p0a0f15f0c4)" style="fill: #b61319; fill-opacity: 0.3; stroke: #b61319; stroke-opacity: 0.3"/>
   </g>
   <g id="PolyCollection_6">
    <path d="M 1070.458204 216450.297172 
L 1070.458204 248.139634 
L 1075.256966 252.013121 
L 1080.055728 256.306871 
L 1084.854489 259.112823 
L 1089.653251 263.038643 
L 1094.452012 270.724096 
L 1099.250774 280.409216 
L 1104.049536 288.280108 
L 1108.848297 294.997299 
L 1113.647059 302.635896 
L 1118.44582 310.351728 
L 1123.244582 315.99861 
L 1128.043344 319.173728 
L 1132.842105 321.713973 
L 1137.640867 325.210429 
L 1142.439628 329.711751 
L 1147.23839 335.300028 
L 1152.037152 342.496161 
L 1156.835913 349.622508 
L 1161.634675 353.712672 
L 1166.433437 355.275316 
L 1171.232198 355.681208 
L 1176.03096 355.56228 
L 1180.829721 357.092071 
L 1185.628483 359.335871 
L 1190.427245 357.28989 
L 1195.226006 352.305705 
L 1200.024768 348.671417 
L 1204.823529 336.005002 
L 1209.622291 309.910644 
L 1214.421053 289.105947 
L 1219.219814 283.247644 
L 1224.018576 285.349466 
L 1228.817337 286.964042 
L 1233.616099 293.037039 
L 1238.414861 312.38645 
L 1243.213622 339.828352 
L 1248.012384 358.742872 
L 1252.811146 366.976471 
L 1257.609907 374.702633 
L 1262.408669 384.488877 
L 1267.20743 394.455757 
L 1272.006192 403.344377 
L 1276.804954 409.009158 
L 1281.603715 414.710134 
L 1286.402477 422.755399 
L 1291.201238 428.829246 
L 1296 430.92 
L 1296 216450.297172 
L 1296 216450.297172 
L 1291.201238 216450.297172 
L 1286.402477 216450.297172 
L 1281.603715 216450.297172 
L 1276.804954 216450.297172 
L 1272.006192 216450.297172 
L 1267.20743 216450.297172 
L 1262.408669 216450.297172 
L 1257.609907 216450.297172 
L 1252.811146 216450.297172 
L 1248.012384 216450.297172 
L 1243.213622 216450.297172 
L 1238.414861 216450.297172 
L 1233.616099 216450.297172 
L 1228.817337 216450.297172 
L 1224.018576 216450.297172 
L 1219.219814 216450.297172 
L 1214.421053 216450.297172 
L 1209.622291 216450.297172 
L 1204.823529 216450.297172 
L 1200.024768 216450.297172 
L 1195.226006 216450.297172 
L 1190.427245 216450.297172 
L 1185.628483 216450.297172 
L 1180.829721 216450.297172 
L 1176.03096 216450.297172 
L 1171.232198 216450.297172 
L 1166.433437 216450.297172 
L 1161.634675 216450.297172 
L 1156.835913 216450.297172 
L 1152.037152 216450.297172 
L 1147.23839 216450.297172 
L 1142.439628 216450.297172 
L 1137.640867 216450.297172 
L 1132.842105 216450.297172 
L 1128.043344 216450.297172 
L 1123.244582 216450.297172 
L 1118.44582 216450.297172 
L 1113.647059 216450.297172 
L 1108.848297 216450.297172 
L 1104.049536 216450.297172 
L 1099.250774 216450.297172 
L 1094.452012 216450.297172 
L 1089.653251 216450.297172 
L 1084.854489 216450.297172 
L 1080.055728 216450.297172 
L 1075.256966 216450.297172 
L 1070.458204 216450.297172 
z
" clip-path="url(#p0a0f15f0c4)" style="fill: #67000d; fill-opacity: 0.3; stroke: #67000d; stroke-opacity: 0.3"/>
   </g>
   <g id="matplotlib.axis_5">
    <g id="xtick_9">
     <g id="line2d_43">
      <g>
       <use xlink:href="#m1e64ee4c43" x="1022.470588" y="448.56" style="stroke: #000000; stroke-width: 0.8"/>
      </g>
     </g>
     <g id="text_10">
      <!-- 0.1 -->
      <g transform="translate(1006.567463 470.756875)scale(0.2 -0.2)">
       <use xlink:href="#DejaVuSans-30"/>
       <use xlink:href="#DejaVuSans-2e" x="63.623047"/>
       <use xlink:href="#DejaVuSans-31" x="95.410156"/>
      </g>
     </g>
    </g>
    <g id="xtick_10">
     <g id="line2d_44">
      <g>
       <use xlink:href="#m1e64ee4c43" x="1113.647059" y="448.56" style="stroke: #000000; stroke-width: 0.8"/>
      </g>
     </g>
     <g id="text_11">
      <!-- 0.2 -->
      <g transform="translate(1097.743934 470.756875)scale(0.2 -0.2)">
       <use xlink:href="#DejaVuSans-30"/>
       <use xlink:href="#DejaVuSans-2e" x="63.623047"/>
       <use xlink:href="#DejaVuSans-32" x="95.410156"/>
      </g>
     </g>
    </g>
    <g id="xtick_11">
     <g id="line2d_45">
      <g>
       <use xlink:href="#m1e64ee4c43" x="1204.823529" y="448.56" style="stroke: #000000; stroke-width: 0.8"/>
      </g>
     </g>
     <g id="text_12">
      <!-- 0.3 -->
      <g transform="translate(1188.920404 470.756875)scale(0.2 -0.2)">
       <use xlink:href="#DejaVuSans-30"/>
       <use xlink:href="#DejaVuSans-2e" x="63.623047"/>
       <use xlink:href="#DejaVuSans-33" x="95.410156"/>
      </g>
     </g>
    </g>
    <g id="xtick_12">
     <g id="line2d_46">
      <g>
       <use xlink:href="#m1e64ee4c43" x="1296" y="448.56" style="stroke: #000000; stroke-width: 0.8"/>
      </g>
     </g>
     <g id="text_13">
      <!-- 0.4 -->
      <g transform="translate(1280.096875 470.756875)scale(0.2 -0.2)">
       <use xlink:href="#DejaVuSans-30"/>
       <use xlink:href="#DejaVuSans-2e" x="63.623047"/>
       <use xlink:href="#DejaVuSans-34" x="95.410156"/>
      </g>
     </g>
    </g>
   </g>
   <g id="matplotlib.axis_6">
    <g id="ytick_33">
     <g id="line2d_47">
      <g>
       <use xlink:href="#m2551d2c9a5" x="967.764706" y="265.29849" style="stroke: #000000; stroke-width: 0.8"/>
      </g>
     </g>
    </g>
    <g id="ytick_34">
     <g id="line2d_48">
      <g>
       <use xlink:href="#mc6b7739749" x="967.764706" y="416.405319" style="stroke: #000000; stroke-width: 0.6"/>
      </g>
     </g>
    </g>
    <g id="ytick_35">
     <g id="line2d_49">
      <g>
       <use xlink:href="#mc6b7739749" x="967.764706" y="378.337031" style="stroke: #000000; stroke-width: 0.6"/>
      </g>
     </g>
    </g>
    <g id="ytick_36">
     <g id="line2d_50">
      <g>
       <use xlink:href="#mc6b7739749" x="967.764706" y="351.32715" style="stroke: #000000; stroke-width: 0.6"/>
      </g>
     </g>
    </g>
    <g id="ytick_37">
     <g id="line2d_51">
      <g>
       <use xlink:href="#mc6b7739749" x="967.764706" y="330.376659" style="stroke: #000000; stroke-width: 0.6"/>
      </g>
     </g>
    </g>
    <g id="ytick_38">
     <g id="line2d_52">
      <g>
       <use xlink:href="#mc6b7739749" x="967.764706" y="313.258861" style="stroke: #000000; stroke-width: 0.6"/>
      </g>
     </g>
    </g>
    <g id="ytick_39">
     <g id="line2d_53">
      <g>
       <use xlink:href="#mc6b7739749" x="967.764706" y="298.78597" style="stroke: #000000; stroke-width: 0.6"/>
      </g>
     </g>
    </g>
    <g id="ytick_40">
     <g id="line2d_54">
      <g>
       <use xlink:href="#mc6b7739749" x="967.764706" y="286.248981" style="stroke: #000000; stroke-width: 0.6"/>
      </g>
     </g>
    </g>
    <g id="ytick_41">
     <g id="line2d_55">
      <g>
       <use xlink:href="#mc6b7739749" x="967.764706" y="275.190573" style="stroke: #000000; stroke-width: 0.6"/>
      </g>
     </g>
    </g>
    <g id="ytick_42">
     <g id="line2d_56">
      <g>
       <use xlink:href="#mc6b7739749" x="967.764706" y="200.220321" style="stroke: #000000; stroke-width: 0.6"/>
      </g>
     </g>
    </g>
    <g id="ytick_43">
     <g id="line2d_57">
      <g>
       <use xlink:href="#mc6b7739749" x="967.764706" y="162.152032" style="stroke: #000000; stroke-width: 0.6"/>
      </g>
     </g>
    </g>
    <g id="ytick_44">
     <g id="line2d_58">
      <g>
       <use xlink:href="#mc6b7739749" x="967.764706" y="135.142151" style="stroke: #000000; stroke-width: 0.6"/>
      </g>
     </g>
    </g>
    <g id="ytick_45">
     <g id="line2d_59">
      <g>
       <use xlink:href="#mc6b7739749" x="967.764706" y="114.19166" style="stroke: #000000; stroke-width: 0.6"/>
      </g>
     </g>
    </g>
    <g id="ytick_46">
     <g id="line2d_60">
      <g>
       <use xlink:href="#mc6b7739749" x="967.764706" y="97.073863" style="stroke: #000000; stroke-width: 0.6"/>
      </g>
     </g>
    </g>
    <g id="ytick_47">
     <g id="line2d_61">
      <g>
       <use xlink:href="#mc6b7739749" x="967.764706" y="82.600971" style="stroke: #000000; stroke-width: 0.6"/>
      </g>
     </g>
    </g>
    <g id="ytick_48">
     <g id="line2d_62">
      <g>
       <use xlink:href="#mc6b7739749" x="967.764706" y="70.063982" style="stroke: #000000; stroke-width: 0.6"/>
      </g>
     </g>
    </g>
   </g>
   <g id="line2d_63">
    <path d="M 969.684211 87.932976 
L 974.482972 88.588405 
L 979.281734 91.870587 
L 984.080495 97.504981 
L 988.879257 103.657618 
L 993.678019 109.461664 
L 998.47678 113.350642 
L 1003.275542 117.159485 
L 1008.074303 121.690002 
L 1012.873065 124.463483 
L 1017.671827 127.905168 
L 1022.470588 136.230328 
L 1027.26935 148.947856 
L 1032.068111 161.826365 
L 1036.866873 173.481852 
L 1041.665635 187.04927 
L 1046.464396 203.363725 
L 1051.263158 217.33875 
L 1056.06192 227.12426 
L 1060.860681 237.052846 
L 1065.659443 244.802961 
L 1070.458204 248.139634 
L 1075.256966 252.013121 
L 1080.055728 256.306871 
L 1084.854489 259.112823 
L 1089.653251 263.038643 
L 1094.452012 270.724096 
L 1099.250774 280.409216 
L 1104.049536 288.280108 
L 1108.848297 294.997299 
L 1113.647059 302.635896 
L 1118.44582 310.351728 
L 1123.244582 315.99861 
L 1128.043344 319.173728 
L 1132.842105 321.713973 
L 1137.640867 325.210429 
L 1142.439628 329.711751 
L 1147.23839 335.300028 
L 1152.037152 342.496161 
L 1156.835913 349.622508 
L 1161.634675 353.712672 
L 1166.433437 355.275316 
L 1171.232198 355.681208 
L 1176.03096 355.56228 
L 1180.829721 357.092071 
L 1185.628483 359.335871 
L 1190.427245 357.28989 
L 1195.226006 352.305705 
L 1200.024768 348.671417 
L 1204.823529 336.005002 
L 1209.622291 309.910644 
L 1214.421053 289.105947 
L 1219.219814 283.247644 
L 1224.018576 285.349466 
L 1228.817337 286.964042 
L 1233.616099 293.037039 
L 1238.414861 312.38645 
L 1243.213622 339.828352 
L 1248.012384 358.742872 
L 1252.811146 366.976471 
L 1257.609907 374.702633 
L 1262.408669 384.488877 
L 1267.20743 394.455757 
L 1272.006192 403.344377 
L 1276.804954 409.009158 
L 1281.603715 414.710134 
L 1286.402477 422.755399 
L 1291.201238 428.829246 
L 1296 430.92 
" clip-path="url(#p0a0f15f0c4)" style="fill: none; stroke: #67000d; stroke-width: 1.5; stroke-linecap: square"/>
   </g>
   <g id="patch_9">
    <path d="M 967.764706 448.56 
L 967.764706 60.48 
" style="fill: none; stroke: #000000; stroke-width: 2; stroke-linejoin: miter; stroke-linecap: square"/>
   </g>
   <g id="patch_10">
    <path d="M 967.764706 448.56 
L 1296 448.56 
" style="fill: none; stroke: #000000; stroke-width: 2; stroke-linejoin: miter; stroke-linecap: square"/>
   </g>
  </g>
 </g>
 <defs>
  <clipPath id="pe3ab7cd386">
   <rect x="180" y="60.48" width="328.235294" height="388.08"/>
  </clipPath>
  <clipPath id="pdfeae999ef">
   <rect x="573.882353" y="60.48" width="328.235294" height="388.08"/>
  </clipPath>
  <clipPath id="p0a0f15f0c4">
   <rect x="967.764706" y="60.48" width="328.235294" height="388.08"/>
  </clipPath>
 </defs>
</svg>
