<?xml version="1.0" encoding="utf-8" standalone="no"?>
<!DOCTYPE svg PUBLIC "-//W3C//DTD SVG 1.1//EN"
  "http://www.w3.org/Graphics/SVG/1.1/DTD/svg11.dtd">
<svg xmlns:xlink="http://www.w3.org/1999/xlink" width="432pt" height="432pt" viewBox="0 0 432 432" xmlns="http://www.w3.org/2000/svg" version="1.1">
 <metadata>
  <rdf:RDF xmlns:dc="http://purl.org/dc/elements/1.1/" xmlns:cc="http://creativecommons.org/ns#" xmlns:rdf="http://www.w3.org/1999/02/22-rdf-syntax-ns#">
   <cc:Work>
    <dc:type rdf:resource="http://purl.org/dc/dcmitype/StillImage"/>
    <dc:date>2023-10-22T16:14:01.869996</dc:date>
    <dc:format>image/svg+xml</dc:format>
    <dc:creator>
     <cc:Agent>
      <dc:title>Matplotlib v3.5.3, https://matplotlib.org/</dc:title>
     </cc:Agent>
    </dc:creator>
   </cc:Work>
  </rdf:RDF>
 </metadata>
 <defs>
  <style type="text/css">*{stroke-linejoin: round; stroke-linecap: butt}</style>
 </defs>
 <g id="figure_1">
  <g id="patch_1">
   <path d="M 0 432 
L 432 432 
L 432 0 
L 0 0 
L 0 432 
z
" style="fill: none"/>
  </g>
  <g id="axes_1">
   <g id="patch_2">
    <path d="M 54 384.48 
L 388.8 384.48 
L 388.8 51.84 
L 54 51.84 
L 54 384.48 
z
" style="fill: none"/>
   </g>
   <g id="matplotlib.axis_1">
    <g id="xtick_1">
     <g id="line2d_1">
      <defs>
       <path id="m9b5e757386" d="M 0 0 
L 0 3.5 
" style="stroke: #000000; stroke-width: 0.8"/>
      </defs>
      <g>
       <use xlink:href="#m9b5e757386" x="109.8" y="384.48" style="stroke: #000000; stroke-width: 0.8"/>
      </g>
     </g>
    </g>
    <g id="xtick_2">
     <g id="line2d_2">
      <g>
       <use xlink:href="#m9b5e757386" x="221.4" y="384.48" style="stroke: #000000; stroke-width: 0.8"/>
      </g>
     </g>
    </g>
    <g id="xtick_3">
     <g id="line2d_3">
      <g>
       <use xlink:href="#m9b5e757386" x="333" y="384.48" style="stroke: #000000; stroke-width: 0.8"/>
      </g>
     </g>
    </g>
   </g>
   <g id="matplotlib.axis_2">
    <g id="ytick_1">
     <g id="line2d_4">
      <defs>
       <path id="md850b93a75" d="M 0 0 
L -3.5 0 
" style="stroke: #000000; stroke-width: 0.8"/>
      </defs>
      <g>
       <use xlink:href="#md850b93a75" x="54" y="350.413104" style="stroke: #000000; stroke-width: 0.8"/>
      </g>
     </g>
     <g id="text_1">
      <!-- 65 -->
      <g transform="translate(24.095 357.251698)scale(0.18 -0.18)">
       <defs>
        <path id="DejaVuSans-36" d="M 2113 2584 
Q 1688 2584 1439 2293 
Q 1191 2003 1191 1497 
Q 1191 994 1439 701 
Q 1688 409 2113 409 
Q 2538 409 2786 701 
Q 3034 994 3034 1497 
Q 3034 2003 2786 2293 
Q 2538 2584 2113 2584 
z
M 3366 4563 
L 3366 3988 
Q 3128 4100 2886 4159 
Q 2644 4219 2406 4219 
Q 1781 4219 1451 3797 
Q 1122 3375 1075 2522 
Q 1259 2794 1537 2939 
Q 1816 3084 2150 3084 
Q 2853 3084 3261 2657 
Q 3669 2231 3669 1497 
Q 3669 778 3244 343 
Q 2819 -91 2113 -91 
Q 1303 -91 875 529 
Q 447 1150 447 2328 
Q 447 3434 972 4092 
Q 1497 4750 2381 4750 
Q 2619 4750 2861 4703 
Q 3103 4656 3366 4563 
z
" transform="scale(0.015625)"/>
        <path id="DejaVuSans-35" d="M 691 4666 
L 3169 4666 
L 3169 4134 
L 1269 4134 
L 1269 2991 
Q 1406 3038 1543 3061 
Q 1681 3084 1819 3084 
Q 2600 3084 3056 2656 
Q 3513 2228 3513 1497 
Q 3513 744 3044 326 
Q 2575 -91 1722 -91 
Q 1428 -91 1123 -41 
Q 819 9 494 109 
L 494 744 
Q 775 591 1075 516 
Q 1375 441 1709 441 
Q 2250 441 2565 725 
Q 2881 1009 2881 1497 
Q 2881 1984 2565 2268 
Q 2250 2553 1709 2553 
Q 1456 2553 1204 2497 
Q 953 2441 691 2322 
L 691 4666 
z
" transform="scale(0.015625)"/>
       </defs>
       <use xlink:href="#DejaVuSans-36"/>
       <use xlink:href="#DejaVuSans-35" x="63.623047"/>
      </g>
     </g>
    </g>
    <g id="ytick_2">
     <g id="line2d_5">
      <g>
       <use xlink:href="#md850b93a75" x="54" y="304.371439" style="stroke: #000000; stroke-width: 0.8"/>
      </g>
     </g>
     <g id="text_2">
      <!-- 70 -->
      <g transform="translate(24.095 311.210032)scale(0.18 -0.18)">
       <defs>
        <path id="DejaVuSans-37" d="M 525 4666 
L 3525 4666 
L 3525 4397 
L 1831 0 
L 1172 0 
L 2766 4134 
L 525 4134 
L 525 4666 
z
" transform="scale(0.015625)"/>
        <path id="DejaVuSans-30" d="M 2034 4250 
Q 1547 4250 1301 3770 
Q 1056 3291 1056 2328 
Q 1056 1369 1301 889 
Q 1547 409 2034 409 
Q 2525 409 2770 889 
Q 3016 1369 3016 2328 
Q 3016 3291 2770 3770 
Q 2525 4250 2034 4250 
z
M 2034 4750 
Q 2819 4750 3233 4129 
Q 3647 3509 3647 2328 
Q 3647 1150 3233 529 
Q 2819 -91 2034 -91 
Q 1250 -91 836 529 
Q 422 1150 422 2328 
Q 422 3509 836 4129 
Q 1250 4750 2034 4750 
z
" transform="scale(0.015625)"/>
       </defs>
       <use xlink:href="#DejaVuSans-37"/>
       <use xlink:href="#DejaVuSans-30" x="63.623047"/>
      </g>
     </g>
    </g>
    <g id="ytick_3">
     <g id="line2d_6">
      <g>
       <use xlink:href="#md850b93a75" x="54" y="258.329774" style="stroke: #000000; stroke-width: 0.8"/>
      </g>
     </g>
     <g id="text_3">
      <!-- 75 -->
      <g transform="translate(24.095 265.168367)scale(0.18 -0.18)">
       <use xlink:href="#DejaVuSans-37"/>
       <use xlink:href="#DejaVuSans-35" x="63.623047"/>
      </g>
     </g>
    </g>
    <g id="ytick_4">
     <g id="line2d_7">
      <g>
       <use xlink:href="#md850b93a75" x="54" y="212.288108" style="stroke: #000000; stroke-width: 0.8"/>
      </g>
     </g>
     <g id="text_4">
      <!-- 80 -->
      <g transform="translate(24.095 219.126702)scale(0.18 -0.18)">
       <defs>
        <path id="DejaVuSans-38" d="M 2034 2216 
Q 1584 2216 1326 1975 
Q 1069 1734 1069 1313 
Q 1069 891 1326 650 
Q 1584 409 2034 409 
Q 2484 409 2743 651 
Q 3003 894 3003 1313 
Q 3003 1734 2745 1975 
Q 2488 2216 2034 2216 
z
M 1403 2484 
Q 997 2584 770 2862 
Q 544 3141 544 3541 
Q 544 4100 942 4425 
Q 1341 4750 2034 4750 
Q 2731 4750 3128 4425 
Q 3525 4100 3525 3541 
Q 3525 3141 3298 2862 
Q 3072 2584 2669 2484 
Q 3125 2378 3379 2068 
Q 3634 1759 3634 1313 
Q 3634 634 3220 271 
Q 2806 -91 2034 -91 
Q 1263 -91 848 271 
Q 434 634 434 1313 
Q 434 1759 690 2068 
Q 947 2378 1403 2484 
z
M 1172 3481 
Q 1172 3119 1398 2916 
Q 1625 2713 2034 2713 
Q 2441 2713 2670 2916 
Q 2900 3119 2900 3481 
Q 2900 3844 2670 4047 
Q 2441 4250 2034 4250 
Q 1625 4250 1398 4047 
Q 1172 3844 1172 3481 
z
" transform="scale(0.015625)"/>
       </defs>
       <use xlink:href="#DejaVuSans-38"/>
       <use xlink:href="#DejaVuSans-30" x="63.623047"/>
      </g>
     </g>
    </g>
    <g id="ytick_5">
     <g id="line2d_8">
      <g>
       <use xlink:href="#md850b93a75" x="54" y="166.246443" style="stroke: #000000; stroke-width: 0.8"/>
      </g>
     </g>
     <g id="text_5">
      <!-- 85 -->
      <g transform="translate(24.095 173.085037)scale(0.18 -0.18)">
       <use xlink:href="#DejaVuSans-38"/>
       <use xlink:href="#DejaVuSans-35" x="63.623047"/>
      </g>
     </g>
    </g>
    <g id="ytick_6">
     <g id="line2d_9">
      <g>
       <use xlink:href="#md850b93a75" x="54" y="120.204778" style="stroke: #000000; stroke-width: 0.8"/>
      </g>
     </g>
     <g id="text_6">
      <!-- 90 -->
      <g transform="translate(24.095 127.043372)scale(0.18 -0.18)">
       <defs>
        <path id="DejaVuSans-39" d="M 703 97 
L 703 672 
Q 941 559 1184 500 
Q 1428 441 1663 441 
Q 2288 441 2617 861 
Q 2947 1281 2994 2138 
Q 2813 1869 2534 1725 
Q 2256 1581 1919 1581 
Q 1219 1581 811 2004 
Q 403 2428 403 3163 
Q 403 3881 828 4315 
Q 1253 4750 1959 4750 
Q 2769 4750 3195 4129 
Q 3622 3509 3622 2328 
Q 3622 1225 3098 567 
Q 2575 -91 1691 -91 
Q 1453 -91 1209 -44 
Q 966 3 703 97 
z
M 1959 2075 
Q 2384 2075 2632 2365 
Q 2881 2656 2881 3163 
Q 2881 3666 2632 3958 
Q 2384 4250 1959 4250 
Q 1534 4250 1286 3958 
Q 1038 3666 1038 3163 
Q 1038 2656 1286 2365 
Q 1534 2075 1959 2075 
z
" transform="scale(0.015625)"/>
       </defs>
       <use xlink:href="#DejaVuSans-39"/>
       <use xlink:href="#DejaVuSans-30" x="63.623047"/>
      </g>
     </g>
    </g>
    <g id="ytick_7">
     <g id="line2d_10">
      <g>
       <use xlink:href="#md850b93a75" x="54" y="74.163113" style="stroke: #000000; stroke-width: 0.8"/>
      </g>
     </g>
     <g id="text_7">
      <!-- 95 -->
      <g transform="translate(24.095 81.001707)scale(0.18 -0.18)">
       <use xlink:href="#DejaVuSans-39"/>
       <use xlink:href="#DejaVuSans-35" x="63.623047"/>
      </g>
     </g>
    </g>
   </g>
   <g id="patch_3">
    <path d="M 67.95 243.631176 
L 151.65 243.631176 
L 151.65 201.499512 
L 67.95 201.499512 
L 67.95 243.631176 
z
" clip-path="url(#pabcf2160b1)" style="fill: #fb694a; fill-opacity: 0.65"/>
   </g>
   <g id="line2d_11">
    <path d="M 109.8 243.631176 
L 109.8 293.292455 
" clip-path="url(#pabcf2160b1)" style="fill: none; stroke: #000000; stroke-width: 1.25; stroke-linecap: square"/>
   </g>
   <g id="line2d_12">
    <path d="M 109.8 201.499512 
L 109.8 173.443854 
" clip-path="url(#pabcf2160b1)" style="fill: none; stroke: #000000; stroke-width: 1.25; stroke-linecap: square"/>
   </g>
   <g id="line2d_13">
    <path d="M 88.875 293.292455 
L 130.725 293.292455 
" clip-path="url(#pabcf2160b1)" style="fill: none; stroke: #000000; stroke-width: 1.25; stroke-linecap: square"/>
   </g>
   <g id="line2d_14">
    <path d="M 88.875 173.443854 
L 130.725 173.443854 
" clip-path="url(#pabcf2160b1)" style="fill: none; stroke: #000000; stroke-width: 1.25; stroke-linecap: square"/>
   </g>
   <g id="line2d_15">
    <defs>
     <path id="m250e3ed89c" d="M 0 3 
C 0.795609 3 1.55874 2.683901 2.12132 2.12132 
C 2.683901 1.55874 3 0.795609 3 0 
C 3 -0.795609 2.683901 -1.55874 2.12132 -2.12132 
C 1.55874 -2.683901 0.795609 -3 0 -3 
C -0.795609 -3 -1.55874 -2.683901 -2.12132 -2.12132 
C -2.683901 -1.55874 -3 -0.795609 -3 0 
C -3 0.795609 -2.683901 1.55874 -2.12132 2.12132 
C -1.55874 2.683901 -0.795609 3 0 3 
z
" style="stroke: #000000"/>
    </defs>
    <g clip-path="url(#pabcf2160b1)">
     <use xlink:href="#m250e3ed89c" x="109.8" y="71.236029" style="fill-opacity: 0; stroke: #000000"/>
    </g>
   </g>
   <g id="patch_4">
    <path d="M 179.55 315.677661 
L 263.25 315.677661 
L 263.25 238.109063 
L 179.55 238.109063 
L 179.55 315.677661 
z
" clip-path="url(#pabcf2160b1)" style="fill: #ca181d; fill-opacity: 0.65"/>
   </g>
   <g id="line2d_16">
    <path d="M 221.4 315.677661 
L 221.4 369.36 
" clip-path="url(#pabcf2160b1)" style="fill: none; stroke: #000000; stroke-width: 1.25; stroke-linecap: square"/>
   </g>
   <g id="line2d_17">
    <path d="M 221.4 238.109063 
L 221.4 169.43807 
" clip-path="url(#pabcf2160b1)" style="fill: none; stroke: #000000; stroke-width: 1.25; stroke-linecap: square"/>
   </g>
   <g id="line2d_18">
    <path d="M 200.475 369.36 
L 242.325 369.36 
" clip-path="url(#pabcf2160b1)" style="fill: none; stroke: #000000; stroke-width: 1.25; stroke-linecap: square"/>
   </g>
   <g id="line2d_19">
    <path d="M 200.475 169.43807 
L 242.325 169.43807 
" clip-path="url(#pabcf2160b1)" style="fill: none; stroke: #000000; stroke-width: 1.25; stroke-linecap: square"/>
   </g>
   <g id="line2d_20"/>
   <g id="patch_5">
    <path d="M 291.15 236.506743 
L 374.85 236.506743 
L 374.85 163.390895 
L 291.15 163.390895 
L 291.15 236.506743 
z
" clip-path="url(#pabcf2160b1)" style="fill: #67000d; fill-opacity: 0.65"/>
   </g>
   <g id="line2d_21">
    <path d="M 333 236.506743 
L 333 305.333031 
" clip-path="url(#pabcf2160b1)" style="fill: none; stroke: #000000; stroke-width: 1.25; stroke-linecap: square"/>
   </g>
   <g id="line2d_22">
    <path d="M 333 163.390895 
L 333 66.96 
" clip-path="url(#pabcf2160b1)" style="fill: none; stroke: #000000; stroke-width: 1.25; stroke-linecap: square"/>
   </g>
   <g id="line2d_23">
    <path d="M 312.075 305.333031 
L 353.925 305.333031 
" clip-path="url(#pabcf2160b1)" style="fill: none; stroke: #000000; stroke-width: 1.25; stroke-linecap: square"/>
   </g>
   <g id="line2d_24">
    <path d="M 312.075 66.96 
L 353.925 66.96 
" clip-path="url(#pabcf2160b1)" style="fill: none; stroke: #000000; stroke-width: 1.25; stroke-linecap: square"/>
   </g>
   <g id="line2d_25"/>
   <g id="line2d_26">
    <path d="M 134.513346 173.443854 
L 204.766594 321.408356 
L 327.694721 169.511493 
" clip-path="url(#pabcf2160b1)" style="fill: none; stroke: #808080; stroke-width: 0.5; stroke-linecap: square"/>
   </g>
   <g id="line2d_27">
    <path d="M 110.002219 200.961311 
L 208.171261 298.485575 
L 314.178222 238.264663 
" clip-path="url(#pabcf2160b1)" style="fill: none; stroke: #808080; stroke-width: 0.5; stroke-linecap: square"/>
   </g>
   <g id="line2d_28">
    <path d="M 134.161837 203.114115 
L 247.459702 169.43807 
L 328.768273 189.683459 
" clip-path="url(#pabcf2160b1)" style="fill: none; stroke: #808080; stroke-width: 0.5; stroke-linecap: square"/>
   </g>
   <g id="line2d_29">
    <path d="M 111.931258 293.292455 
L 195.947507 247.821593 
L 336.286317 161.350696 
" clip-path="url(#pabcf2160b1)" style="fill: none; stroke: #808080; stroke-width: 0.5; stroke-linecap: square"/>
   </g>
   <g id="line2d_30">
    <path d="M 82.274854 248.62723 
L 237.831853 369.36 
L 315.041459 244.583794 
" clip-path="url(#pabcf2160b1)" style="fill: none; stroke: #808080; stroke-width: 0.5; stroke-linecap: square"/>
   </g>
   <g id="line2d_31">
    <path d="M 88.664489 71.236029 
L 211.242052 194.569967 
L 323.39227 200.854225 
" clip-path="url(#pabcf2160b1)" style="fill: none; stroke: #808080; stroke-width: 0.5; stroke-linecap: square"/>
   </g>
   <g id="line2d_32">
    <path d="M 137.623427 178.816374 
L 195.604346 221.679355 
L 349.767941 198.957884 
" clip-path="url(#pabcf2160b1)" style="fill: none; stroke: #808080; stroke-width: 0.5; stroke-linecap: square"/>
   </g>
   <g id="line2d_33">
    <path d="M 131.809139 226.395996 
L 238.300487 234.871553 
L 316.488874 218.869337 
" clip-path="url(#pabcf2160b1)" style="fill: none; stroke: #808080; stroke-width: 0.5; stroke-linecap: square"/>
   </g>
   <g id="line2d_34">
    <path d="M 121.838589 210.010392 
L 226.319156 297.485997 
L 359.866966 305.333031 
" clip-path="url(#pabcf2160b1)" style="fill: none; stroke: #808080; stroke-width: 0.5; stroke-linecap: square"/>
   </g>
   <g id="line2d_35">
    <path d="M 83.474974 285.606413 
L 214.107633 340.6469 
L 341.91757 231.232983 
" clip-path="url(#pabcf2160b1)" style="fill: none; stroke: #808080; stroke-width: 0.5; stroke-linecap: square"/>
   </g>
   <g id="line2d_36">
    <path d="M 101.843553 203.655663 
L 215.462721 263.73616 
L 329.037088 160.843121 
" clip-path="url(#pabcf2160b1)" style="fill: none; stroke: #808080; stroke-width: 0.5; stroke-linecap: square"/>
   </g>
   <g id="line2d_37">
    <path d="M 130.037546 226.883592 
L 197.710794 344.842534 
L 356.106107 288.604056 
" clip-path="url(#pabcf2160b1)" style="fill: none; stroke: #808080; stroke-width: 0.5; stroke-linecap: square"/>
   </g>
   <g id="line2d_38">
    <path d="M 114.632268 228.643013 
L 196.245316 256.782836 
L 314.404263 151.511387 
" clip-path="url(#pabcf2160b1)" style="fill: none; stroke: #808080; stroke-width: 0.5; stroke-linecap: square"/>
   </g>
   <g id="line2d_39">
    <path d="M 94.817071 265.267939 
L 247.650612 292.330689 
L 358.671072 66.96 
" clip-path="url(#pabcf2160b1)" style="fill: none; stroke: #808080; stroke-width: 0.5; stroke-linecap: square"/>
   </g>
   <g id="line2d_40">
    <defs>
     <path id="mb0bd4ac885" d="M 0 3 
C 0.795609 3 1.55874 2.683901 2.12132 2.12132 
C 2.683901 1.55874 3 0.795609 3 0 
C 3 -0.795609 2.683901 -1.55874 2.12132 -2.12132 
C 1.55874 -2.683901 0.795609 -3 0 -3 
C -0.795609 -3 -1.55874 -2.683901 -2.12132 -2.12132 
C -2.683901 -1.55874 -3 -0.795609 -3 0 
C -3 0.795609 -2.683901 1.55874 -2.12132 2.12132 
C -1.55874 2.683901 -0.795609 3 0 3 
z
" style="stroke: #000000"/>
    </defs>
    <g clip-path="url(#pabcf2160b1)">
     <use xlink:href="#mb0bd4ac885" x="134.513346" y="173.443854" style="stroke: #000000"/>
     <use xlink:href="#mb0bd4ac885" x="204.766594" y="321.408356" style="stroke: #000000"/>
     <use xlink:href="#mb0bd4ac885" x="327.694721" y="169.511493" style="stroke: #000000"/>
    </g>
   </g>
   <g id="line2d_41">
    <g clip-path="url(#pabcf2160b1)">
     <use xlink:href="#mb0bd4ac885" x="110.002219" y="200.961311" style="stroke: #000000"/>
     <use xlink:href="#mb0bd4ac885" x="208.171261" y="298.485575" style="stroke: #000000"/>
     <use xlink:href="#mb0bd4ac885" x="314.178222" y="238.264663" style="stroke: #000000"/>
    </g>
   </g>
   <g id="line2d_42">
    <g clip-path="url(#pabcf2160b1)">
     <use xlink:href="#mb0bd4ac885" x="134.161837" y="203.114115" style="stroke: #000000"/>
     <use xlink:href="#mb0bd4ac885" x="247.459702" y="169.43807" style="stroke: #000000"/>
     <use xlink:href="#mb0bd4ac885" x="328.768273" y="189.683459" style="stroke: #000000"/>
    </g>
   </g>
   <g id="line2d_43">
    <g clip-path="url(#pabcf2160b1)">
     <use xlink:href="#mb0bd4ac885" x="111.931258" y="293.292455" style="stroke: #000000"/>
     <use xlink:href="#mb0bd4ac885" x="195.947507" y="247.821593" style="stroke: #000000"/>
     <use xlink:href="#mb0bd4ac885" x="336.286317" y="161.350696" style="stroke: #000000"/>
    </g>
   </g>
   <g id="line2d_44">
    <g clip-path="url(#pabcf2160b1)">
     <use xlink:href="#mb0bd4ac885" x="82.274854" y="248.62723" style="stroke: #000000"/>
     <use xlink:href="#mb0bd4ac885" x="237.831853" y="369.36" style="stroke: #000000"/>
     <use xlink:href="#mb0bd4ac885" x="315.041459" y="244.583794" style="stroke: #000000"/>
    </g>
   </g>
   <g id="line2d_45">
    <g clip-path="url(#pabcf2160b1)">
     <use xlink:href="#mb0bd4ac885" x="88.664489" y="71.236029" style="stroke: #000000"/>
     <use xlink:href="#mb0bd4ac885" x="211.242052" y="194.569967" style="stroke: #000000"/>
     <use xlink:href="#mb0bd4ac885" x="323.39227" y="200.854225" style="stroke: #000000"/>
    </g>
   </g>
   <g id="line2d_46">
    <g clip-path="url(#pabcf2160b1)">
     <use xlink:href="#mb0bd4ac885" x="137.623427" y="178.816374" style="stroke: #000000"/>
     <use xlink:href="#mb0bd4ac885" x="195.604346" y="221.679355" style="stroke: #000000"/>
     <use xlink:href="#mb0bd4ac885" x="349.767941" y="198.957884" style="stroke: #000000"/>
    </g>
   </g>
   <g id="line2d_47">
    <g clip-path="url(#pabcf2160b1)">
     <use xlink:href="#mb0bd4ac885" x="131.809139" y="226.395996" style="stroke: #000000"/>
     <use xlink:href="#mb0bd4ac885" x="238.300487" y="234.871553" style="stroke: #000000"/>
     <use xlink:href="#mb0bd4ac885" x="316.488874" y="218.869337" style="stroke: #000000"/>
    </g>
   </g>
   <g id="line2d_48">
    <g clip-path="url(#pabcf2160b1)">
     <use xlink:href="#mb0bd4ac885" x="121.838589" y="210.010392" style="stroke: #000000"/>
     <use xlink:href="#mb0bd4ac885" x="226.319156" y="297.485997" style="stroke: #000000"/>
     <use xlink:href="#mb0bd4ac885" x="359.866966" y="305.333031" style="stroke: #000000"/>
    </g>
   </g>
   <g id="line2d_49">
    <g clip-path="url(#pabcf2160b1)">
     <use xlink:href="#mb0bd4ac885" x="83.474974" y="285.606413" style="stroke: #000000"/>
     <use xlink:href="#mb0bd4ac885" x="214.107633" y="340.6469" style="stroke: #000000"/>
     <use xlink:href="#mb0bd4ac885" x="341.91757" y="231.232983" style="stroke: #000000"/>
    </g>
   </g>
   <g id="line2d_50">
    <g clip-path="url(#pabcf2160b1)">
     <use xlink:href="#mb0bd4ac885" x="101.843553" y="203.655663" style="stroke: #000000"/>
     <use xlink:href="#mb0bd4ac885" x="215.462721" y="263.73616" style="stroke: #000000"/>
     <use xlink:href="#mb0bd4ac885" x="329.037088" y="160.843121" style="stroke: #000000"/>
    </g>
   </g>
   <g id="line2d_51">
    <g clip-path="url(#pabcf2160b1)">
     <use xlink:href="#mb0bd4ac885" x="130.037546" y="226.883592" style="stroke: #000000"/>
     <use xlink:href="#mb0bd4ac885" x="197.710794" y="344.842534" style="stroke: #000000"/>
     <use xlink:href="#mb0bd4ac885" x="356.106107" y="288.604056" style="stroke: #000000"/>
    </g>
   </g>
   <g id="line2d_52">
    <g clip-path="url(#pabcf2160b1)">
     <use xlink:href="#mb0bd4ac885" x="114.632268" y="228.643013" style="stroke: #000000"/>
     <use xlink:href="#mb0bd4ac885" x="196.245316" y="256.782836" style="stroke: #000000"/>
     <use xlink:href="#mb0bd4ac885" x="314.404263" y="151.511387" style="stroke: #000000"/>
    </g>
   </g>
   <g id="line2d_53">
    <g clip-path="url(#pabcf2160b1)">
     <use xlink:href="#mb0bd4ac885" x="94.817071" y="265.267939" style="stroke: #000000"/>
     <use xlink:href="#mb0bd4ac885" x="247.650612" y="292.330689" style="stroke: #000000"/>
     <use xlink:href="#mb0bd4ac885" x="358.671072" y="66.96" style="stroke: #000000"/>
    </g>
   </g>
   <g id="line2d_54">
    <path d="M 67.95 218.203194 
L 151.65 218.203194 
" clip-path="url(#pabcf2160b1)" style="fill: none; stroke: #ffffff; stroke-width: 3; stroke-linecap: square"/>
   </g>
   <g id="line2d_55">
    <path d="M 179.55 278.033424 
L 263.25 278.033424 
" clip-path="url(#pabcf2160b1)" style="fill: none; stroke: #ffffff; stroke-width: 3; stroke-linecap: square"/>
   </g>
   <g id="line2d_56">
    <path d="M 291.15 199.906054 
L 374.85 199.906054 
" clip-path="url(#pabcf2160b1)" style="fill: none; stroke: #ffffff; stroke-width: 3; stroke-linecap: square"/>
   </g>
  </g>
 </g>
 <defs>
  <clipPath id="pabcf2160b1">
   <rect x="54" y="51.84" width="334.8" height="332.64"/>
  </clipPath>
 </defs>
</svg>
