<?xml version="1.0" encoding="utf-8" standalone="no"?>
<!DOCTYPE svg PUBLIC "-//W3C//DTD SVG 1.1//EN"
  "http://www.w3.org/Graphics/SVG/1.1/DTD/svg11.dtd">
<svg xmlns:xlink="http://www.w3.org/1999/xlink" width="1008pt" height="288pt" viewBox="0 0 1008 288" xmlns="http://www.w3.org/2000/svg" version="1.1">
 <metadata>
  <rdf:RDF xmlns:dc="http://purl.org/dc/elements/1.1/" xmlns:cc="http://creativecommons.org/ns#" xmlns:rdf="http://www.w3.org/1999/02/22-rdf-syntax-ns#">
   <cc:Work>
    <dc:type rdf:resource="http://purl.org/dc/dcmitype/StillImage"/>
    <dc:date>2023-10-22T16:14:01.629047</dc:date>
    <dc:format>image/svg+xml</dc:format>
    <dc:creator>
     <cc:Agent>
      <dc:title>Matplotlib v3.5.3, https://matplotlib.org/</dc:title>
     </cc:Agent>
    </dc:creator>
   </cc:Work>
  </rdf:RDF>
 </metadata>
 <defs>
  <style type="text/css">*{stroke-linejoin: round; stroke-linecap: butt}</style>
 </defs>
 <g id="figure_1">
  <g id="patch_1">
   <path d="M 0 288 
L 1008 288 
L 1008 0 
L 0 0 
L 0 288 
z
" style="fill: none"/>
  </g>
  <g id="axes_1">
   <g id="patch_2">
    <path d="M 126 256.32 
L 370.125 256.32 
L 370.125 34.56 
L 126 34.56 
L 126 256.32 
z
" style="fill: none"/>
   </g>
   <g id="PolyCollection_1">
    <defs>
     <path id="m54b2cba712" d="M 100.911364 -22.44 
L 100.911364 -22.483981 
L 102.947727 -22.478657 
L 104.984091 -22.475096 
L 107.020455 -22.472737 
L 109.056818 -22.471399 
L 111.093182 -22.471268 
L 113.129545 -22.460402 
L 115.165909 -22.593886 
L 117.202273 -26.570491 
L 119.238636 -38.053317 
L 121.275 -51.626868 
L 123.311364 -66.686503 
L 125.347727 -82.693637 
L 127.384091 -99.578311 
L 129.420455 -117.117744 
L 131.456818 -134.665948 
L 133.493182 -151.745003 
L 135.529545 -168.150512 
L 137.565909 -180.094405 
L 139.602273 -182.994797 
L 141.638636 -182.715765 
L 143.675 -181.113127 
L 145.711364 -178.294393 
L 147.747727 -173.743998 
L 149.784091 -168.470079 
L 151.820455 -164.039219 
L 153.856818 -160.796737 
L 155.893182 -157.725487 
L 157.929545 -154.153197 
L 159.965909 -153.312395 
L 162.002273 -153.980992 
L 164.038636 -153.209879 
L 166.075 -153.077259 
L 168.111364 -154.203368 
L 170.147727 -151.19648 
L 172.184091 -141.597864 
L 174.220455 -136.919154 
L 176.256818 -136.396638 
L 178.293182 -137.085041 
L 180.329545 -136.494368 
L 182.365909 -135.384019 
L 184.402273 -135.196408 
L 186.438636 -134.43153 
L 188.475 -132.663296 
L 190.511364 -135.519626 
L 192.547727 -143.538142 
L 194.584091 -144.835967 
L 196.620455 -142.549082 
L 198.656818 -139.877107 
L 200.693182 -137.530402 
L 202.729545 -135.242277 
L 204.765909 -132.753569 
L 206.802273 -130.453414 
L 208.838636 -128.748163 
L 210.875 -127.477208 
L 212.911364 -128.22268 
L 214.947727 -128.74902 
L 216.984091 -127.645383 
L 219.020455 -126.345005 
L 221.056818 -124.483425 
L 223.093182 -122.492463 
L 225.129545 -120.881282 
L 227.165909 -118.610209 
L 229.202273 -116.056189 
L 231.238636 -113.068303 
L 233.275 -108.565692 
L 235.311364 -104.862786 
L 237.347727 -102.511267 
L 239.384091 -100.931907 
L 241.420455 -99.314979 
L 243.456818 -97.603081 
L 245.493182 -95.907868 
L 247.529545 -95.209371 
L 249.565909 -94.730358 
L 251.602273 -91.383669 
L 253.638636 -85.412241 
L 255.675 -82.733877 
L 257.711364 -81.215124 
L 259.747727 -79.393934 
L 261.784091 -77.967585 
L 263.820455 -77.142008 
L 265.856818 -76.251096 
L 267.893182 -74.825511 
L 269.929545 -73.19738 
L 271.965909 -73.741456 
L 274.002273 -76.899896 
L 276.038636 -76.926007 
L 278.075 -75.709308 
L 280.111364 -74.243281 
L 282.147727 -72.933735 
L 284.184091 -71.476077 
L 286.220455 -69.725591 
L 288.256818 -68.006908 
L 290.293182 -66.932348 
L 292.329545 -65.969984 
L 294.365909 -64.754278 
L 296.402273 -63.57917 
L 298.438636 -62.366822 
L 300.475 -61.517062 
L 302.511364 -60.498384 
L 304.547727 -59.16594 
L 306.584091 -58.286469 
L 308.620455 -57.535589 
L 310.656818 -56.480463 
L 312.693182 -55.235552 
L 314.729545 -54.197324 
L 316.765909 -53.337853 
L 318.802273 -52.617483 
L 320.838636 -52.067021 
L 322.875 -51.357413 
L 324.911364 -50.705622 
L 326.947727 -50.081797 
L 328.984091 -49.390514 
L 331.020455 -48.362964 
L 333.056818 -47.678934 
L 335.093182 -47.104217 
L 337.129545 -46.428109 
L 339.165909 -45.680428 
L 341.202273 -44.644147 
L 343.238636 -43.748422 
L 345.275 -43.073961 
L 347.311364 -42.257796 
L 349.347727 -41.486317 
L 351.384091 -41.097714 
L 353.420455 -40.550273 
L 355.456818 -39.945993 
L 357.493182 -39.540897 
L 359.529545 -39.273097 
L 361.565909 -38.598563 
L 363.602273 -37.008399 
L 365.638636 -35.088407 
L 367.675 -33.345041 
L 369.711364 -31.680475 
L 371.747727 -29.899005 
L 373.784091 -28.28222 
L 375.820455 -26.745062 
L 377.856818 -25.226892 
L 379.893182 -23.706458 
L 381.929545 -22.618878 
L 383.965909 -22.441427 
L 386.002273 -22.440504 
L 388.038636 -22.440392 
L 390.075 -22.440349 
L 392.111364 -22.440325 
L 394.147727 -22.440309 
L 396.184091 -22.440297 
L 396.184091 -22.44 
L 396.184091 -22.44 
L 394.147727 -22.44 
L 392.111364 -22.44 
L 390.075 -22.44 
L 388.038636 -22.44 
L 386.002273 -22.44 
L 383.965909 -22.44 
L 381.929545 -22.44 
L 379.893182 -22.44 
L 377.856818 -22.44 
L 375.820455 -22.44 
L 373.784091 -22.44 
L 371.747727 -22.44 
L 369.711364 -22.44 
L 367.675 -22.44 
L 365.638636 -22.44 
L 363.602273 -22.44 
L 361.565909 -22.44 
L 359.529545 -22.44 
L 357.493182 -22.44 
L 355.456818 -22.44 
L 353.420455 -22.44 
L 351.384091 -22.44 
L 349.347727 -22.44 
L 347.311364 -22.44 
L 345.275 -22.44 
L 343.238636 -22.44 
L 341.202273 -22.44 
L 339.165909 -22.44 
L 337.129545 -22.44 
L 335.093182 -22.44 
L 333.056818 -22.44 
L 331.020455 -22.44 
L 328.984091 -22.44 
L 326.947727 -22.44 
L 324.911364 -22.44 
L 322.875 -22.44 
L 320.838636 -22.44 
L 318.802273 -22.44 
L 316.765909 -22.44 
L 314.729545 -22.44 
L 312.693182 -22.44 
L 310.656818 -22.44 
L 308.620455 -22.44 
L 306.584091 -22.44 
L 304.547727 -22.44 
L 302.511364 -22.44 
L 300.475 -22.44 
L 298.438636 -22.44 
L 296.402273 -22.44 
L 294.365909 -22.44 
L 292.329545 -22.44 
L 290.293182 -22.44 
L 288.256818 -22.44 
L 286.220455 -22.44 
L 284.184091 -22.44 
L 282.147727 -22.44 
L 280.111364 -22.44 
L 278.075 -22.44 
L 276.038636 -22.44 
L 274.002273 -22.44 
L 271.965909 -22.44 
L 269.929545 -22.44 
L 267.893182 -22.44 
L 265.856818 -22.44 
L 263.820455 -22.44 
L 261.784091 -22.44 
L 259.747727 -22.44 
L 257.711364 -22.44 
L 255.675 -22.44 
L 253.638636 -22.44 
L 251.602273 -22.44 
L 249.565909 -22.44 
L 247.529545 -22.44 
L 245.493182 -22.44 
L 243.456818 -22.44 
L 241.420455 -22.44 
L 239.384091 -22.44 
L 237.347727 -22.44 
L 235.311364 -22.44 
L 233.275 -22.44 
L 231.238636 -22.44 
L 229.202273 -22.44 
L 227.165909 -22.44 
L 225.129545 -22.44 
L 223.093182 -22.44 
L 221.056818 -22.44 
L 219.020455 -22.44 
L 216.984091 -22.44 
L 214.947727 -22.44 
L 212.911364 -22.44 
L 210.875 -22.44 
L 208.838636 -22.44 
L 206.802273 -22.44 
L 204.765909 -22.44 
L 202.729545 -22.44 
L 200.693182 -22.44 
L 198.656818 -22.44 
L 196.620455 -22.44 
L 194.584091 -22.44 
L 192.547727 -22.44 
L 190.511364 -22.44 
L 188.475 -22.44 
L 186.438636 -22.44 
L 184.402273 -22.44 
L 182.365909 -22.44 
L 180.329545 -22.44 
L 178.293182 -22.44 
L 176.256818 -22.44 
L 174.220455 -22.44 
L 172.184091 -22.44 
L 170.147727 -22.44 
L 168.111364 -22.44 
L 166.075 -22.44 
L 164.038636 -22.44 
L 162.002273 -22.44 
L 159.965909 -22.44 
L 157.929545 -22.44 
L 155.893182 -22.44 
L 153.856818 -22.44 
L 151.820455 -22.44 
L 149.784091 -22.44 
L 147.747727 -22.44 
L 145.711364 -22.44 
L 143.675 -22.44 
L 141.638636 -22.44 
L 139.602273 -22.44 
L 137.565909 -22.44 
L 135.529545 -22.44 
L 133.493182 -22.44 
L 131.456818 -22.44 
L 129.420455 -22.44 
L 127.384091 -22.44 
L 125.347727 -22.44 
L 123.311364 -22.44 
L 121.275 -22.44 
L 119.238636 -22.44 
L 117.202273 -22.44 
L 115.165909 -22.44 
L 113.129545 -22.44 
L 111.093182 -22.44 
L 109.056818 -22.44 
L 107.020455 -22.44 
L 104.984091 -22.44 
L 102.947727 -22.44 
L 100.911364 -22.44 
z
" style="stroke: #fb7858; stroke-opacity: 0.5"/>
    </defs>
    <g clip-path="url(#pd3aa060c8c)">
     <use xlink:href="#m54b2cba712" x="0" y="288" style="fill: #fb7858; fill-opacity: 0.5; stroke: #fb7858; stroke-opacity: 0.5"/>
    </g>
   </g>
   <g id="matplotlib.axis_1">
    <g id="xtick_1">
     <g id="line2d_1">
      <defs>
       <path id="mec5d8fd9ab" d="M 0 0 
L 0 3.5 
" style="stroke: #000000; stroke-width: 0.8"/>
      </defs>
      <g>
       <use xlink:href="#mec5d8fd9ab" x="166.6875" y="256.32" style="stroke: #000000; stroke-width: 0.8"/>
      </g>
     </g>
     <g id="text_1">
      <!-- 50 -->
      <g transform="translate(156.5075 275.4775)scale(0.16 -0.16)">
       <defs>
        <path id="DejaVuSans-35" d="M 691 4666 
L 3169 4666 
L 3169 4134 
L 1269 4134 
L 1269 2991 
Q 1406 3038 1543 3061 
Q 1681 3084 1819 3084 
Q 2600 3084 3056 2656 
Q 3513 2228 3513 1497 
Q 3513 744 3044 326 
Q 2575 -91 1722 -91 
Q 1428 -91 1123 -41 
Q 819 9 494 109 
L 494 744 
Q 775 591 1075 516 
Q 1375 441 1709 441 
Q 2250 441 2565 725 
Q 2881 1009 2881 1497 
Q 2881 1984 2565 2268 
Q 2250 2553 1709 2553 
Q 1456 2553 1204 2497 
Q 953 2441 691 2322 
L 691 4666 
z
" transform="scale(0.015625)"/>
        <path id="DejaVuSans-30" d="M 2034 4250 
Q 1547 4250 1301 3770 
Q 1056 3291 1056 2328 
Q 1056 1369 1301 889 
Q 1547 409 2034 409 
Q 2525 409 2770 889 
Q 3016 1369 3016 2328 
Q 3016 3291 2770 3770 
Q 2525 4250 2034 4250 
z
M 2034 4750 
Q 2819 4750 3233 4129 
Q 3647 3509 3647 2328 
Q 3647 1150 3233 529 
Q 2819 -91 2034 -91 
Q 1250 -91 836 529 
Q 422 1150 422 2328 
Q 422 3509 836 4129 
Q 1250 4750 2034 4750 
z
" transform="scale(0.015625)"/>
       </defs>
       <use xlink:href="#DejaVuSans-35"/>
       <use xlink:href="#DejaVuSans-30" x="63.623047"/>
      </g>
     </g>
    </g>
    <g id="xtick_2">
     <g id="line2d_2">
      <g>
       <use xlink:href="#mec5d8fd9ab" x="234.5" y="256.32" style="stroke: #000000; stroke-width: 0.8"/>
      </g>
     </g>
     <g id="text_2">
      <!-- 100 -->
      <g transform="translate(219.23 275.4775)scale(0.16 -0.16)">
       <defs>
        <path id="DejaVuSans-31" d="M 794 531 
L 1825 531 
L 1825 4091 
L 703 3866 
L 703 4441 
L 1819 4666 
L 2450 4666 
L 2450 531 
L 3481 531 
L 3481 0 
L 794 0 
L 794 531 
z
" transform="scale(0.015625)"/>
       </defs>
       <use xlink:href="#DejaVuSans-31"/>
       <use xlink:href="#DejaVuSans-30" x="63.623047"/>
       <use xlink:href="#DejaVuSans-30" x="127.246094"/>
      </g>
     </g>
    </g>
    <g id="xtick_3">
     <g id="line2d_3">
      <g>
       <use xlink:href="#mec5d8fd9ab" x="302.3125" y="256.32" style="stroke: #000000; stroke-width: 0.8"/>
      </g>
     </g>
     <g id="text_3">
      <!-- 150 -->
      <g transform="translate(287.0425 275.4775)scale(0.16 -0.16)">
       <use xlink:href="#DejaVuSans-31"/>
       <use xlink:href="#DejaVuSans-35" x="63.623047"/>
       <use xlink:href="#DejaVuSans-30" x="127.246094"/>
      </g>
     </g>
    </g>
    <g id="xtick_4">
     <g id="line2d_4">
      <g>
       <use xlink:href="#mec5d8fd9ab" x="370.125" y="256.32" style="stroke: #000000; stroke-width: 0.8"/>
      </g>
     </g>
     <g id="text_4">
      <!-- 200 -->
      <g transform="translate(354.855 275.4775)scale(0.16 -0.16)">
       <defs>
        <path id="DejaVuSans-32" d="M 1228 531 
L 3431 531 
L 3431 0 
L 469 0 
L 469 531 
Q 828 903 1448 1529 
Q 2069 2156 2228 2338 
Q 2531 2678 2651 2914 
Q 2772 3150 2772 3378 
Q 2772 3750 2511 3984 
Q 2250 4219 1831 4219 
Q 1534 4219 1204 4116 
Q 875 4013 500 3803 
L 500 4441 
Q 881 4594 1212 4672 
Q 1544 4750 1819 4750 
Q 2544 4750 2975 4387 
Q 3406 4025 3406 3419 
Q 3406 3131 3298 2873 
Q 3191 2616 2906 2266 
Q 2828 2175 2409 1742 
Q 1991 1309 1228 531 
z
" transform="scale(0.015625)"/>
       </defs>
       <use xlink:href="#DejaVuSans-32"/>
       <use xlink:href="#DejaVuSans-30" x="63.623047"/>
       <use xlink:href="#DejaVuSans-30" x="127.246094"/>
      </g>
     </g>
    </g>
   </g>
   <g id="matplotlib.axis_2">
    <g id="ytick_1">
     <g id="line2d_5">
      <defs>
       <path id="m18bbec59b9" d="M 0 0 
L -3.5 0 
" style="stroke: #000000; stroke-width: 0.8"/>
      </defs>
      <g>
       <use xlink:href="#m18bbec59b9" x="126" y="219.36" style="stroke: #000000; stroke-width: 0.8"/>
      </g>
     </g>
     <g id="text_5">
      <!-- 0.5 -->
      <g transform="translate(93.555 225.43875)scale(0.16 -0.16)">
       <defs>
        <path id="DejaVuSans-2e" d="M 684 794 
L 1344 794 
L 1344 0 
L 684 0 
L 684 794 
z
" transform="scale(0.015625)"/>
       </defs>
       <use xlink:href="#DejaVuSans-30"/>
       <use xlink:href="#DejaVuSans-2e" x="63.623047"/>
       <use xlink:href="#DejaVuSans-35" x="95.410156"/>
      </g>
     </g>
    </g>
    <g id="ytick_2">
     <g id="line2d_6">
      <g>
       <use xlink:href="#m18bbec59b9" x="126" y="173.16" style="stroke: #000000; stroke-width: 0.8"/>
      </g>
     </g>
     <g id="text_6">
      <!-- 1.0 -->
      <g transform="translate(93.555 179.23875)scale(0.16 -0.16)">
       <use xlink:href="#DejaVuSans-31"/>
       <use xlink:href="#DejaVuSans-2e" x="63.623047"/>
       <use xlink:href="#DejaVuSans-30" x="95.410156"/>
      </g>
     </g>
    </g>
    <g id="ytick_3">
     <g id="line2d_7">
      <g>
       <use xlink:href="#m18bbec59b9" x="126" y="126.96" style="stroke: #000000; stroke-width: 0.8"/>
      </g>
     </g>
     <g id="text_7">
      <!-- 1.5 -->
      <g transform="translate(93.555 133.03875)scale(0.16 -0.16)">
       <use xlink:href="#DejaVuSans-31"/>
       <use xlink:href="#DejaVuSans-2e" x="63.623047"/>
       <use xlink:href="#DejaVuSans-35" x="95.410156"/>
      </g>
     </g>
    </g>
    <g id="ytick_4">
     <g id="line2d_8">
      <g>
       <use xlink:href="#m18bbec59b9" x="126" y="80.76" style="stroke: #000000; stroke-width: 0.8"/>
      </g>
     </g>
     <g id="text_8">
      <!-- 2.0 -->
      <g transform="translate(93.555 86.83875)scale(0.16 -0.16)">
       <use xlink:href="#DejaVuSans-32"/>
       <use xlink:href="#DejaVuSans-2e" x="63.623047"/>
       <use xlink:href="#DejaVuSans-30" x="95.410156"/>
      </g>
     </g>
    </g>
    <g id="ytick_5">
     <g id="line2d_9">
      <g>
       <use xlink:href="#m18bbec59b9" x="126" y="34.56" style="stroke: #000000; stroke-width: 0.8"/>
      </g>
     </g>
     <g id="text_9">
      <!-- 2.5 -->
      <g transform="translate(93.555 40.63875)scale(0.16 -0.16)">
       <use xlink:href="#DejaVuSans-32"/>
       <use xlink:href="#DejaVuSans-2e" x="63.623047"/>
       <use xlink:href="#DejaVuSans-35" x="95.410156"/>
      </g>
     </g>
    </g>
   </g>
   <g id="line2d_10">
    <path d="M 100.911364 265.516019 
L 113.129545 265.539598 
L 115.165909 265.406114 
L 117.202273 261.429509 
L 119.238636 249.946683 
L 121.275 236.373132 
L 123.311364 221.313497 
L 127.384091 188.421689 
L 133.493182 136.254997 
L 135.529545 119.849488 
L 137.565909 107.905595 
L 139.602273 105.005203 
L 141.638636 105.284235 
L 143.675 106.886873 
L 145.711364 109.705607 
L 147.747727 114.256002 
L 149.784091 119.529921 
L 151.820455 123.960781 
L 157.929545 133.846803 
L 159.965909 134.687605 
L 162.002273 134.019008 
L 164.038636 134.790121 
L 166.075 134.922741 
L 168.111364 133.796632 
L 170.147727 136.80352 
L 172.184091 146.402136 
L 174.220455 151.080846 
L 176.256818 151.603362 
L 178.293182 150.914959 
L 180.329545 151.505632 
L 182.365909 152.615981 
L 184.402273 152.803592 
L 186.438636 153.56847 
L 188.475 155.336704 
L 190.511364 152.480374 
L 192.547727 144.461858 
L 194.584091 143.164033 
L 196.620455 145.450918 
L 198.656818 148.122893 
L 206.802273 157.546586 
L 208.838636 159.251837 
L 210.875 160.522792 
L 212.911364 159.77732 
L 214.947727 159.25098 
L 216.984091 160.354617 
L 219.020455 161.654995 
L 225.129545 167.118718 
L 227.165909 169.389791 
L 229.202273 171.943811 
L 231.238636 174.931697 
L 233.275 179.434308 
L 235.311364 183.137214 
L 237.347727 185.488733 
L 241.420455 188.685021 
L 245.493182 192.092132 
L 247.529545 192.790629 
L 249.565909 193.269642 
L 251.602273 196.616331 
L 253.638636 202.587759 
L 255.675 205.266123 
L 257.711364 206.784876 
L 259.747727 208.606066 
L 261.784091 210.032415 
L 265.856818 211.748904 
L 267.893182 213.174489 
L 269.929545 214.80262 
L 271.965909 214.258544 
L 274.002273 211.100104 
L 276.038636 211.073993 
L 278.075 212.290692 
L 280.111364 213.756719 
L 282.147727 215.066265 
L 284.184091 216.523923 
L 288.256818 219.993092 
L 294.365909 223.245722 
L 298.438636 225.633178 
L 300.475 226.482938 
L 302.511364 227.501616 
L 304.547727 228.83406 
L 306.584091 229.713531 
L 308.620455 230.464411 
L 310.656818 231.519537 
L 312.693182 232.764448 
L 314.729545 233.802676 
L 316.765909 234.662147 
L 318.802273 235.382517 
L 320.838636 235.932979 
L 324.911364 237.294378 
L 328.984091 238.609486 
L 331.020455 239.637036 
L 335.093182 240.895783 
L 339.165909 242.319572 
L 341.202273 243.355853 
L 343.238636 244.251578 
L 345.275 244.926039 
L 349.347727 246.513683 
L 351.384091 246.902286 
L 357.493182 248.459103 
L 359.529545 248.726903 
L 361.565909 249.401437 
L 363.602273 250.991601 
L 365.638636 252.911593 
L 371.747727 258.100995 
L 375.820455 261.254938 
L 379.893182 264.293542 
L 381.929545 265.381122 
L 383.965909 265.558573 
L 396.184091 265.559703 
L 396.184091 265.559703 
" clip-path="url(#pd3aa060c8c)" style="fill: none; stroke: #fb7858; stroke-width: 1.5; stroke-linecap: square"/>
   </g>
   <g id="line2d_11">
    <path d="M 206.912937 256.32 
L 206.912937 34.56 
" clip-path="url(#pd3aa060c8c)" style="fill: none; stroke: #000000; stroke-width: 2; stroke-linecap: square"/>
   </g>
   <g id="patch_3">
    <path d="M 126 256.32 
L 126 34.56 
" style="fill: none; stroke: #000000; stroke-width: 2; stroke-linejoin: miter; stroke-linecap: square"/>
   </g>
   <g id="patch_4">
    <path d="M 126 256.32 
L 370.125 256.32 
" style="fill: none; stroke: #000000; stroke-width: 2; stroke-linejoin: miter; stroke-linecap: square"/>
   </g>
  </g>
  <g id="axes_2">
   <g id="patch_5">
    <path d="M 394.5375 256.32 
L 638.6625 256.32 
L 638.6625 34.56 
L 394.5375 34.56 
L 394.5375 256.32 
z
" style="fill: none"/>
   </g>
   <g id="PolyCollection_2">
    <defs>
     <path id="m22a8d6ce5d" d="M 369.448864 -22.44 
L 369.448864 -22.483664 
L 371.485227 -22.47757 
L 373.521591 -22.473345 
L 375.557955 -22.470334 
L 377.594318 -22.468278 
L 379.630682 -22.467209 
L 381.667045 -22.452754 
L 383.703409 -22.582325 
L 385.739773 -26.511403 
L 387.776136 -38.757661 
L 389.8125 -54.464231 
L 391.848864 -71.090905 
L 393.885227 -89.09453 
L 395.921591 -109.479483 
L 397.957955 -132.038425 
L 399.994318 -156.718315 
L 402.030682 -182.78994 
L 404.067045 -209.240876 
L 406.103409 -230.075928 
L 408.139773 -239.40116 
L 410.176136 -242.090905 
L 412.2125 -240.945176 
L 414.248864 -236.923041 
L 416.285227 -229.209966 
L 418.321591 -218.578703 
L 420.357955 -205.656397 
L 422.394318 -191.487016 
L 424.430682 -176.923738 
L 426.467045 -164.228146 
L 428.503409 -154.856826 
L 430.539773 -149.121424 
L 432.576136 -146.769286 
L 434.6125 -146.144294 
L 436.648864 -146.996822 
L 438.685227 -144.976999 
L 440.721591 -137.209581 
L 442.757955 -136.108715 
L 444.794318 -138.189461 
L 446.830682 -140.256478 
L 448.867045 -142.079794 
L 450.903409 -142.822045 
L 452.939773 -142.545698 
L 454.976136 -141.497761 
L 457.0125 -139.711286 
L 459.048864 -140.904765 
L 461.085227 -147.702199 
L 463.121591 -147.297083 
L 465.157955 -143.374856 
L 467.194318 -139.200089 
L 469.230682 -134.961028 
L 471.267045 -131.037668 
L 473.303409 -127.514868 
L 475.339773 -124.25917 
L 477.376136 -121.351163 
L 479.4125 -119.034562 
L 481.448864 -116.915023 
L 483.485227 -115.046999 
L 485.521591 -113.264395 
L 487.557955 -111.449331 
L 489.594318 -109.791383 
L 491.630682 -108.20108 
L 493.667045 -106.5305 
L 495.703409 -105.06135 
L 497.739773 -103.521228 
L 499.776136 -101.74771 
L 501.8125 -99.974285 
L 503.848864 -98.171969 
L 505.885227 -96.292415 
L 507.921591 -94.506522 
L 509.957955 -92.592904 
L 511.994318 -90.785163 
L 514.030682 -89.092942 
L 516.067045 -87.191961 
L 518.103409 -85.269522 
L 520.139773 -81.84964 
L 522.176136 -76.365792 
L 524.2125 -73.450656 
L 526.248864 -71.761882 
L 528.285227 -70.133853 
L 530.321591 -68.608694 
L 532.357955 -67.094882 
L 534.394318 -65.616095 
L 536.430682 -64.358607 
L 538.467045 -63.239902 
L 540.503409 -63.75655 
L 542.539773 -66.305529 
L 544.576136 -66.413375 
L 546.6125 -65.385812 
L 548.648864 -64.298654 
L 550.685227 -63.179035 
L 552.721591 -62.114705 
L 554.757955 -61.071334 
L 556.794318 -59.915202 
L 558.830682 -58.809401 
L 560.867045 -57.784124 
L 562.903409 -56.799033 
L 564.939773 -55.746122 
L 566.976136 -54.768724 
L 569.0125 -53.803043 
L 571.048864 -52.801961 
L 573.085227 -51.864491 
L 575.121591 -50.906841 
L 577.157955 -50.089164 
L 579.194318 -49.341225 
L 581.230682 -48.579306 
L 583.267045 -47.829953 
L 585.303409 -47.071924 
L 587.339773 -46.323687 
L 589.376136 -45.645522 
L 591.4125 -45.035802 
L 593.448864 -44.387744 
L 595.485227 -43.77147 
L 597.521591 -43.152525 
L 599.557955 -42.486564 
L 601.594318 -41.8535 
L 603.630682 -41.362024 
L 605.667045 -40.860536 
L 607.703409 -40.397725 
L 609.739773 -39.963943 
L 611.776136 -39.502121 
L 613.8125 -39.036321 
L 615.848864 -38.605347 
L 617.885227 -38.183816 
L 619.921591 -37.819637 
L 621.957955 -37.464657 
L 623.994318 -37.03385 
L 626.030682 -36.66964 
L 628.067045 -36.269412 
L 630.103409 -35.502688 
L 632.139773 -34.127779 
L 634.176136 -32.675812 
L 636.2125 -31.235617 
L 638.248864 -29.824086 
L 640.285227 -28.458568 
L 642.321591 -27.124805 
L 644.357955 -25.820148 
L 646.394318 -24.573327 
L 648.430682 -23.364302 
L 650.467045 -22.563535 
L 652.503409 -22.44248 
L 654.539773 -22.441601 
L 656.576136 -22.441426 
L 658.6125 -22.441322 
L 660.648864 -22.441246 
L 662.685227 -22.441186 
L 664.721591 -22.441136 
L 664.721591 -22.44 
L 664.721591 -22.44 
L 662.685227 -22.44 
L 660.648864 -22.44 
L 658.6125 -22.44 
L 656.576136 -22.44 
L 654.539773 -22.44 
L 652.503409 -22.44 
L 650.467045 -22.44 
L 648.430682 -22.44 
L 646.394318 -22.44 
L 644.357955 -22.44 
L 642.321591 -22.44 
L 640.285227 -22.44 
L 638.248864 -22.44 
L 636.2125 -22.44 
L 634.176136 -22.44 
L 632.139773 -22.44 
L 630.103409 -22.44 
L 628.067045 -22.44 
L 626.030682 -22.44 
L 623.994318 -22.44 
L 621.957955 -22.44 
L 619.921591 -22.44 
L 617.885227 -22.44 
L 615.848864 -22.44 
L 613.8125 -22.44 
L 611.776136 -22.44 
L 609.739773 -22.44 
L 607.703409 -22.44 
L 605.667045 -22.44 
L 603.630682 -22.44 
L 601.594318 -22.44 
L 599.557955 -22.44 
L 597.521591 -22.44 
L 595.485227 -22.44 
L 593.448864 -22.44 
L 591.4125 -22.44 
L 589.376136 -22.44 
L 587.339773 -22.44 
L 585.303409 -22.44 
L 583.267045 -22.44 
L 581.230682 -22.44 
L 579.194318 -22.44 
L 577.157955 -22.44 
L 575.121591 -22.44 
L 573.085227 -22.44 
L 571.048864 -22.44 
L 569.0125 -22.44 
L 566.976136 -22.44 
L 564.939773 -22.44 
L 562.903409 -22.44 
L 560.867045 -22.44 
L 558.830682 -22.44 
L 556.794318 -22.44 
L 554.757955 -22.44 
L 552.721591 -22.44 
L 550.685227 -22.44 
L 548.648864 -22.44 
L 546.6125 -22.44 
L 544.576136 -22.44 
L 542.539773 -22.44 
L 540.503409 -22.44 
L 538.467045 -22.44 
L 536.430682 -22.44 
L 534.394318 -22.44 
L 532.357955 -22.44 
L 530.321591 -22.44 
L 528.285227 -22.44 
L 526.248864 -22.44 
L 524.2125 -22.44 
L 522.176136 -22.44 
L 520.139773 -22.44 
L 518.103409 -22.44 
L 516.067045 -22.44 
L 514.030682 -22.44 
L 511.994318 -22.44 
L 509.957955 -22.44 
L 507.921591 -22.44 
L 505.885227 -22.44 
L 503.848864 -22.44 
L 501.8125 -22.44 
L 499.776136 -22.44 
L 497.739773 -22.44 
L 495.703409 -22.44 
L 493.667045 -22.44 
L 491.630682 -22.44 
L 489.594318 -22.44 
L 487.557955 -22.44 
L 485.521591 -22.44 
L 483.485227 -22.44 
L 481.448864 -22.44 
L 479.4125 -22.44 
L 477.376136 -22.44 
L 475.339773 -22.44 
L 473.303409 -22.44 
L 471.267045 -22.44 
L 469.230682 -22.44 
L 467.194318 -22.44 
L 465.157955 -22.44 
L 463.121591 -22.44 
L 461.085227 -22.44 
L 459.048864 -22.44 
L 457.0125 -22.44 
L 454.976136 -22.44 
L 452.939773 -22.44 
L 450.903409 -22.44 
L 448.867045 -22.44 
L 446.830682 -22.44 
L 444.794318 -22.44 
L 442.757955 -22.44 
L 440.721591 -22.44 
L 438.685227 -22.44 
L 436.648864 -22.44 
L 434.6125 -22.44 
L 432.576136 -22.44 
L 430.539773 -22.44 
L 428.503409 -22.44 
L 426.467045 -22.44 
L 424.430682 -22.44 
L 422.394318 -22.44 
L 420.357955 -22.44 
L 418.321591 -22.44 
L 416.285227 -22.44 
L 414.248864 -22.44 
L 412.2125 -22.44 
L 410.176136 -22.44 
L 408.139773 -22.44 
L 406.103409 -22.44 
L 404.067045 -22.44 
L 402.030682 -22.44 
L 399.994318 -22.44 
L 397.957955 -22.44 
L 395.921591 -22.44 
L 393.885227 -22.44 
L 391.848864 -22.44 
L 389.8125 -22.44 
L 387.776136 -22.44 
L 385.739773 -22.44 
L 383.703409 -22.44 
L 381.667045 -22.44 
L 379.630682 -22.44 
L 377.594318 -22.44 
L 375.557955 -22.44 
L 373.521591 -22.44 
L 371.485227 -22.44 
L 369.448864 -22.44 
z
" style="stroke: #b61319; stroke-opacity: 0.5"/>
    </defs>
    <g clip-path="url(#pf640370d85)">
     <use xlink:href="#m22a8d6ce5d" x="0" y="288" style="fill: #b61319; fill-opacity: 0.5; stroke: #b61319; stroke-opacity: 0.5"/>
    </g>
   </g>
   <g id="matplotlib.axis_3">
    <g id="xtick_5">
     <g id="line2d_12">
      <g>
       <use xlink:href="#mec5d8fd9ab" x="435.225" y="256.32" style="stroke: #000000; stroke-width: 0.8"/>
      </g>
     </g>
     <g id="text_10">
      <!-- 50 -->
      <g transform="translate(425.045 275.4775)scale(0.16 -0.16)">
       <use xlink:href="#DejaVuSans-35"/>
       <use xlink:href="#DejaVuSans-30" x="63.623047"/>
      </g>
     </g>
    </g>
    <g id="xtick_6">
     <g id="line2d_13">
      <g>
       <use xlink:href="#mec5d8fd9ab" x="503.0375" y="256.32" style="stroke: #000000; stroke-width: 0.8"/>
      </g>
     </g>
     <g id="text_11">
      <!-- 100 -->
      <g transform="translate(487.7675 275.4775)scale(0.16 -0.16)">
       <use xlink:href="#DejaVuSans-31"/>
       <use xlink:href="#DejaVuSans-30" x="63.623047"/>
       <use xlink:href="#DejaVuSans-30" x="127.246094"/>
      </g>
     </g>
    </g>
    <g id="xtick_7">
     <g id="line2d_14">
      <g>
       <use xlink:href="#mec5d8fd9ab" x="570.85" y="256.32" style="stroke: #000000; stroke-width: 0.8"/>
      </g>
     </g>
     <g id="text_12">
      <!-- 150 -->
      <g transform="translate(555.58 275.4775)scale(0.16 -0.16)">
       <use xlink:href="#DejaVuSans-31"/>
       <use xlink:href="#DejaVuSans-35" x="63.623047"/>
       <use xlink:href="#DejaVuSans-30" x="127.246094"/>
      </g>
     </g>
    </g>
    <g id="xtick_8">
     <g id="line2d_15">
      <g>
       <use xlink:href="#mec5d8fd9ab" x="638.6625" y="256.32" style="stroke: #000000; stroke-width: 0.8"/>
      </g>
     </g>
     <g id="text_13">
      <!-- 200 -->
      <g transform="translate(623.3925 275.4775)scale(0.16 -0.16)">
       <use xlink:href="#DejaVuSans-32"/>
       <use xlink:href="#DejaVuSans-30" x="63.623047"/>
       <use xlink:href="#DejaVuSans-30" x="127.246094"/>
      </g>
     </g>
    </g>
   </g>
   <g id="matplotlib.axis_4">
    <g id="ytick_6">
     <g id="line2d_16">
      <g>
       <use xlink:href="#m18bbec59b9" x="394.5375" y="219.36" style="stroke: #000000; stroke-width: 0.8"/>
      </g>
     </g>
    </g>
    <g id="ytick_7">
     <g id="line2d_17">
      <g>
       <use xlink:href="#m18bbec59b9" x="394.5375" y="173.16" style="stroke: #000000; stroke-width: 0.8"/>
      </g>
     </g>
    </g>
    <g id="ytick_8">
     <g id="line2d_18">
      <g>
       <use xlink:href="#m18bbec59b9" x="394.5375" y="126.96" style="stroke: #000000; stroke-width: 0.8"/>
      </g>
     </g>
    </g>
    <g id="ytick_9">
     <g id="line2d_19">
      <g>
       <use xlink:href="#m18bbec59b9" x="394.5375" y="80.76" style="stroke: #000000; stroke-width: 0.8"/>
      </g>
     </g>
    </g>
    <g id="ytick_10">
     <g id="line2d_20">
      <g>
       <use xlink:href="#m18bbec59b9" x="394.5375" y="34.56" style="stroke: #000000; stroke-width: 0.8"/>
      </g>
     </g>
    </g>
   </g>
   <g id="line2d_21">
    <path d="M 369.448864 265.516336 
L 381.667045 265.547246 
L 383.703409 265.417675 
L 385.739773 261.488597 
L 387.776136 249.242339 
L 389.8125 233.535769 
L 391.848864 216.909095 
L 393.885227 198.90547 
L 395.921591 178.520517 
L 397.957955 155.961575 
L 399.994318 131.281685 
L 404.067045 78.759124 
L 406.103409 57.924072 
L 408.139773 48.59884 
L 410.176136 45.909095 
L 412.2125 47.054824 
L 414.248864 51.076959 
L 416.285227 58.790034 
L 418.321591 69.421297 
L 420.357955 82.343603 
L 424.430682 111.076262 
L 426.467045 123.771854 
L 428.503409 133.143174 
L 430.539773 138.878576 
L 432.576136 141.230714 
L 434.6125 141.855706 
L 436.648864 141.003178 
L 438.685227 143.023001 
L 440.721591 150.790419 
L 442.757955 151.891285 
L 446.830682 147.743522 
L 448.867045 145.920206 
L 450.903409 145.177955 
L 452.939773 145.454302 
L 454.976136 146.502239 
L 457.0125 148.288714 
L 459.048864 147.095235 
L 461.085227 140.297801 
L 463.121591 140.702917 
L 465.157955 144.625144 
L 471.267045 156.962332 
L 473.303409 160.485132 
L 475.339773 163.74083 
L 477.376136 166.648837 
L 479.4125 168.965438 
L 481.448864 171.084977 
L 487.557955 176.550669 
L 493.667045 181.4695 
L 497.739773 184.478772 
L 507.921591 193.493478 
L 511.994318 197.214837 
L 514.030682 198.907058 
L 518.103409 202.730478 
L 520.139773 206.15036 
L 522.176136 211.634208 
L 524.2125 214.549344 
L 528.285227 217.866147 
L 534.394318 222.383905 
L 536.430682 223.641393 
L 538.467045 224.760098 
L 540.503409 224.24345 
L 542.539773 221.694471 
L 544.576136 221.586625 
L 548.648864 223.701346 
L 552.721591 225.885295 
L 556.794318 228.084798 
L 560.867045 230.215876 
L 575.121591 237.093159 
L 579.194318 238.658775 
L 589.376136 242.354478 
L 599.557955 245.513436 
L 601.594318 246.1465 
L 611.776136 248.497879 
L 617.885227 249.816184 
L 628.067045 251.730588 
L 630.103409 252.497312 
L 634.176136 255.324188 
L 640.285227 259.541432 
L 646.394318 263.426673 
L 648.430682 264.635698 
L 650.467045 265.436465 
L 652.503409 265.55752 
L 664.721591 265.558864 
L 664.721591 265.558864 
" clip-path="url(#pf640370d85)" style="fill: none; stroke: #b61319; stroke-width: 1.5; stroke-linecap: square"/>
   </g>
   <g id="line2d_22">
    <path d="M 466.639578 256.32 
L 466.639578 34.56 
" clip-path="url(#pf640370d85)" style="fill: none; stroke: #000000; stroke-width: 2; stroke-linecap: square"/>
   </g>
   <g id="patch_6">
    <path d="M 394.5375 256.32 
L 394.5375 34.56 
" style="fill: none; stroke: #000000; stroke-width: 2; stroke-linejoin: miter; stroke-linecap: square"/>
   </g>
   <g id="patch_7">
    <path d="M 394.5375 256.32 
L 638.6625 256.32 
" style="fill: none; stroke: #000000; stroke-width: 2; stroke-linejoin: miter; stroke-linecap: square"/>
   </g>
  </g>
  <g id="axes_3">
   <g id="patch_8">
    <path d="M 663.075 256.32 
L 907.2 256.32 
L 907.2 34.56 
L 663.075 34.56 
L 663.075 256.32 
z
" style="fill: none"/>
   </g>
   <g id="PolyCollection_3">
    <defs>
     <path id="mba3ae7afca" d="M 637.986364 -22.44 
L 637.986364 -22.499339 
L 640.022727 -22.496743 
L 642.059091 -22.496063 
L 644.095455 -22.497263 
L 646.131818 -22.500506 
L 648.168182 -22.508453 
L 650.204545 -22.521637 
L 652.240909 -22.824511 
L 654.277273 -27.803559 
L 656.313636 -39.949981 
L 658.35 -53.41155 
L 660.386364 -67.408788 
L 662.422727 -81.955762 
L 664.459091 -96.986698 
L 666.495455 -111.813997 
L 668.531818 -127.364275 
L 670.568182 -144.646838 
L 672.604545 -162.356347 
L 674.640909 -174.397984 
L 676.677273 -178.774988 
L 678.713636 -180.997508 
L 680.75 -180.775044 
L 682.786364 -179.780454 
L 684.822727 -178.135194 
L 686.859091 -176.252657 
L 688.895455 -172.895293 
L 690.931818 -167.952231 
L 692.968182 -163.152528 
L 695.004545 -159.570329 
L 697.040909 -156.088813 
L 699.077273 -152.879719 
L 701.113636 -150.97142 
L 703.15 -149.809411 
L 705.186364 -149.321908 
L 707.222727 -145.070032 
L 709.259091 -135.893714 
L 711.295455 -132.159665 
L 713.331818 -131.777132 
L 715.368182 -131.739339 
L 717.404545 -131.923612 
L 719.440909 -132.706155 
L 721.477273 -133.111349 
L 723.513636 -132.47673 
L 725.55 -130.960689 
L 727.586364 -133.262392 
L 729.622727 -141.791054 
L 731.659091 -144.474545 
L 733.695455 -142.066784 
L 735.731818 -138.843449 
L 737.768182 -135.382743 
L 739.804545 -131.553609 
L 741.840909 -128.854983 
L 743.877273 -126.882034 
L 745.913636 -125.087982 
L 747.95 -123.358046 
L 749.986364 -120.522748 
L 752.022727 -117.935698 
L 754.059091 -116.422059 
L 756.095455 -114.956068 
L 758.131818 -113.6321 
L 760.168182 -112.638647 
L 762.204545 -111.618007 
L 764.240909 -110.032984 
L 766.277273 -108.633975 
L 768.313636 -107.942562 
L 770.35 -107.931485 
L 772.386364 -107.360066 
L 774.422727 -105.970077 
L 776.459091 -104.63751 
L 778.495455 -103.412155 
L 780.531818 -102.043095 
L 782.568182 -100.57765 
L 784.604545 -99.252223 
L 786.640909 -97.340731 
L 788.677273 -92.842522 
L 790.713636 -85.72265 
L 792.75 -81.941736 
L 794.786364 -80.32095 
L 796.822727 -78.812185 
L 798.859091 -77.314991 
L 800.895455 -75.795501 
L 802.931818 -74.091626 
L 804.968182 -72.586332 
L 807.004545 -71.587759 
L 809.040909 -72.670342 
L 811.077273 -76.164684 
L 813.113636 -76.821638 
L 815.15 -75.720616 
L 817.186364 -74.33894 
L 819.222727 -73.267465 
L 821.259091 -72.179359 
L 823.295455 -71.282624 
L 825.331818 -70.477862 
L 827.368182 -69.521848 
L 829.404545 -68.359521 
L 831.440909 -67.174445 
L 833.477273 -66.126362 
L 835.513636 -65.544039 
L 837.55 -65.092077 
L 839.586364 -64.410738 
L 841.622727 -63.779267 
L 843.659091 -62.682331 
L 845.695455 -61.393725 
L 847.731818 -60.435019 
L 849.768182 -59.662868 
L 851.804545 -58.934625 
L 853.840909 -57.95573 
L 855.877273 -56.632334 
L 857.913636 -55.453032 
L 859.95 -54.419147 
L 861.986364 -53.383344 
L 864.022727 -52.701035 
L 866.059091 -52.151915 
L 868.095455 -51.460518 
L 870.131818 -50.665931 
L 872.168182 -49.837558 
L 874.204545 -49.117571 
L 876.240909 -48.555651 
L 878.277273 -48.034011 
L 880.313636 -47.214656 
L 882.35 -46.508948 
L 884.386364 -46.000227 
L 886.422727 -45.420047 
L 888.459091 -44.716883 
L 890.495455 -44.186481 
L 892.531818 -43.77593 
L 894.568182 -43.401527 
L 896.604545 -42.902512 
L 898.640909 -41.805192 
L 900.677273 -39.886927 
L 902.713636 -37.801402 
L 904.75 -35.600476 
L 906.786364 -33.452345 
L 908.822727 -31.477322 
L 910.859091 -29.571684 
L 912.895455 -27.637641 
L 914.931818 -25.724239 
L 916.968182 -23.891844 
L 919.004545 -22.6514 
L 921.040909 -22.454184 
L 923.077273 -22.451394 
L 925.113636 -22.450626 
L 927.15 -22.450126 
L 929.186364 -22.449759 
L 931.222727 -22.449466 
L 933.259091 -22.449227 
L 933.259091 -22.44 
L 933.259091 -22.44 
L 931.222727 -22.44 
L 929.186364 -22.44 
L 927.15 -22.44 
L 925.113636 -22.44 
L 923.077273 -22.44 
L 921.040909 -22.44 
L 919.004545 -22.44 
L 916.968182 -22.44 
L 914.931818 -22.44 
L 912.895455 -22.44 
L 910.859091 -22.44 
L 908.822727 -22.44 
L 906.786364 -22.44 
L 904.75 -22.44 
L 902.713636 -22.44 
L 900.677273 -22.44 
L 898.640909 -22.44 
L 896.604545 -22.44 
L 894.568182 -22.44 
L 892.531818 -22.44 
L 890.495455 -22.44 
L 888.459091 -22.44 
L 886.422727 -22.44 
L 884.386364 -22.44 
L 882.35 -22.44 
L 880.313636 -22.44 
L 878.277273 -22.44 
L 876.240909 -22.44 
L 874.204545 -22.44 
L 872.168182 -22.44 
L 870.131818 -22.44 
L 868.095455 -22.44 
L 866.059091 -22.44 
L 864.022727 -22.44 
L 861.986364 -22.44 
L 859.95 -22.44 
L 857.913636 -22.44 
L 855.877273 -22.44 
L 853.840909 -22.44 
L 851.804545 -22.44 
L 849.768182 -22.44 
L 847.731818 -22.44 
L 845.695455 -22.44 
L 843.659091 -22.44 
L 841.622727 -22.44 
L 839.586364 -22.44 
L 837.55 -22.44 
L 835.513636 -22.44 
L 833.477273 -22.44 
L 831.440909 -22.44 
L 829.404545 -22.44 
L 827.368182 -22.44 
L 825.331818 -22.44 
L 823.295455 -22.44 
L 821.259091 -22.44 
L 819.222727 -22.44 
L 817.186364 -22.44 
L 815.15 -22.44 
L 813.113636 -22.44 
L 811.077273 -22.44 
L 809.040909 -22.44 
L 807.004545 -22.44 
L 804.968182 -22.44 
L 802.931818 -22.44 
L 800.895455 -22.44 
L 798.859091 -22.44 
L 796.822727 -22.44 
L 794.786364 -22.44 
L 792.75 -22.44 
L 790.713636 -22.44 
L 788.677273 -22.44 
L 786.640909 -22.44 
L 784.604545 -22.44 
L 782.568182 -22.44 
L 780.531818 -22.44 
L 778.495455 -22.44 
L 776.459091 -22.44 
L 774.422727 -22.44 
L 772.386364 -22.44 
L 770.35 -22.44 
L 768.313636 -22.44 
L 766.277273 -22.44 
L 764.240909 -22.44 
L 762.204545 -22.44 
L 760.168182 -22.44 
L 758.131818 -22.44 
L 756.095455 -22.44 
L 754.059091 -22.44 
L 752.022727 -22.44 
L 749.986364 -22.44 
L 747.95 -22.44 
L 745.913636 -22.44 
L 743.877273 -22.44 
L 741.840909 -22.44 
L 739.804545 -22.44 
L 737.768182 -22.44 
L 735.731818 -22.44 
L 733.695455 -22.44 
L 731.659091 -22.44 
L 729.622727 -22.44 
L 727.586364 -22.44 
L 725.55 -22.44 
L 723.513636 -22.44 
L 721.477273 -22.44 
L 719.440909 -22.44 
L 717.404545 -22.44 
L 715.368182 -22.44 
L 713.331818 -22.44 
L 711.295455 -22.44 
L 709.259091 -22.44 
L 707.222727 -22.44 
L 705.186364 -22.44 
L 703.15 -22.44 
L 701.113636 -22.44 
L 699.077273 -22.44 
L 697.040909 -22.44 
L 695.004545 -22.44 
L 692.968182 -22.44 
L 690.931818 -22.44 
L 688.895455 -22.44 
L 686.859091 -22.44 
L 684.822727 -22.44 
L 682.786364 -22.44 
L 680.75 -22.44 
L 678.713636 -22.44 
L 676.677273 -22.44 
L 674.640909 -22.44 
L 672.604545 -22.44 
L 670.568182 -22.44 
L 668.531818 -22.44 
L 666.495455 -22.44 
L 664.459091 -22.44 
L 662.422727 -22.44 
L 660.386364 -22.44 
L 658.35 -22.44 
L 656.313636 -22.44 
L 654.277273 -22.44 
L 652.240909 -22.44 
L 650.204545 -22.44 
L 648.168182 -22.44 
L 646.131818 -22.44 
L 644.095455 -22.44 
L 642.059091 -22.44 
L 640.022727 -22.44 
L 637.986364 -22.44 
z
" style="stroke: #67000d; stroke-opacity: 0.5"/>
    </defs>
    <g clip-path="url(#pcddb3e8042)">
     <use xlink:href="#mba3ae7afca" x="0" y="288" style="fill: #67000d; fill-opacity: 0.5; stroke: #67000d; stroke-opacity: 0.5"/>
    </g>
   </g>
   <g id="matplotlib.axis_5">
    <g id="xtick_9">
     <g id="line2d_23">
      <g>
       <use xlink:href="#mec5d8fd9ab" x="703.7625" y="256.32" style="stroke: #000000; stroke-width: 0.8"/>
      </g>
     </g>
     <g id="text_14">
      <!-- 50 -->
      <g transform="translate(693.5825 275.4775)scale(0.16 -0.16)">
       <use xlink:href="#DejaVuSans-35"/>
       <use xlink:href="#DejaVuSans-30" x="63.623047"/>
      </g>
     </g>
    </g>
    <g id="xtick_10">
     <g id="line2d_24">
      <g>
       <use xlink:href="#mec5d8fd9ab" x="771.575" y="256.32" style="stroke: #000000; stroke-width: 0.8"/>
      </g>
     </g>
     <g id="text_15">
      <!-- 100 -->
      <g transform="translate(756.305 275.4775)scale(0.16 -0.16)">
       <use xlink:href="#DejaVuSans-31"/>
       <use xlink:href="#DejaVuSans-30" x="63.623047"/>
       <use xlink:href="#DejaVuSans-30" x="127.246094"/>
      </g>
     </g>
    </g>
    <g id="xtick_11">
     <g id="line2d_25">
      <g>
       <use xlink:href="#mec5d8fd9ab" x="839.3875" y="256.32" style="stroke: #000000; stroke-width: 0.8"/>
      </g>
     </g>
     <g id="text_16">
      <!-- 150 -->
      <g transform="translate(824.1175 275.4775)scale(0.16 -0.16)">
       <use xlink:href="#DejaVuSans-31"/>
       <use xlink:href="#DejaVuSans-35" x="63.623047"/>
       <use xlink:href="#DejaVuSans-30" x="127.246094"/>
      </g>
     </g>
    </g>
    <g id="xtick_12">
     <g id="line2d_26">
      <g>
       <use xlink:href="#mec5d8fd9ab" x="907.2" y="256.32" style="stroke: #000000; stroke-width: 0.8"/>
      </g>
     </g>
     <g id="text_17">
      <!-- 200 -->
      <g transform="translate(891.93 275.4775)scale(0.16 -0.16)">
       <use xlink:href="#DejaVuSans-32"/>
       <use xlink:href="#DejaVuSans-30" x="63.623047"/>
       <use xlink:href="#DejaVuSans-30" x="127.246094"/>
      </g>
     </g>
    </g>
   </g>
   <g id="matplotlib.axis_6">
    <g id="ytick_11">
     <g id="line2d_27">
      <g>
       <use xlink:href="#m18bbec59b9" x="663.075" y="219.36" style="stroke: #000000; stroke-width: 0.8"/>
      </g>
     </g>
    </g>
    <g id="ytick_12">
     <g id="line2d_28">
      <g>
       <use xlink:href="#m18bbec59b9" x="663.075" y="173.16" style="stroke: #000000; stroke-width: 0.8"/>
      </g>
     </g>
    </g>
    <g id="ytick_13">
     <g id="line2d_29">
      <g>
       <use xlink:href="#m18bbec59b9" x="663.075" y="126.96" style="stroke: #000000; stroke-width: 0.8"/>
      </g>
     </g>
    </g>
    <g id="ytick_14">
     <g id="line2d_30">
      <g>
       <use xlink:href="#m18bbec59b9" x="663.075" y="80.76" style="stroke: #000000; stroke-width: 0.8"/>
      </g>
     </g>
    </g>
    <g id="ytick_15">
     <g id="line2d_31">
      <g>
       <use xlink:href="#m18bbec59b9" x="663.075" y="34.56" style="stroke: #000000; stroke-width: 0.8"/>
      </g>
     </g>
    </g>
   </g>
   <g id="line2d_32">
    <path d="M 637.986364 265.500661 
L 650.204545 265.478363 
L 652.240909 265.175489 
L 654.277273 260.196441 
L 656.313636 248.050019 
L 660.386364 220.591212 
L 666.495455 176.186003 
L 668.531818 160.635725 
L 672.604545 125.643653 
L 674.640909 113.602016 
L 676.677273 109.225012 
L 678.713636 107.002492 
L 680.75 107.224956 
L 682.786364 108.219546 
L 684.822727 109.864806 
L 686.859091 111.747343 
L 688.895455 115.104707 
L 692.968182 124.847472 
L 697.040909 131.911187 
L 699.077273 135.120281 
L 701.113636 137.02858 
L 703.15 138.190589 
L 705.186364 138.678092 
L 707.222727 142.929968 
L 709.259091 152.106286 
L 711.295455 155.840335 
L 713.331818 156.222868 
L 715.368182 156.260661 
L 717.404545 156.076388 
L 719.440909 155.293845 
L 721.477273 154.888651 
L 723.513636 155.52327 
L 725.55 157.039311 
L 727.586364 154.737608 
L 729.622727 146.208946 
L 731.659091 143.525455 
L 733.695455 145.933216 
L 735.731818 149.156551 
L 737.768182 152.617257 
L 739.804545 156.446391 
L 741.840909 159.145017 
L 743.877273 161.117966 
L 747.95 164.641954 
L 749.986364 167.477252 
L 752.022727 170.064302 
L 756.095455 173.043932 
L 758.131818 174.3679 
L 762.204545 176.381993 
L 764.240909 177.967016 
L 766.277273 179.366025 
L 768.313636 180.057438 
L 770.35 180.068515 
L 772.386364 180.639934 
L 776.459091 183.36249 
L 778.495455 184.587845 
L 784.604545 188.747777 
L 786.640909 190.659269 
L 788.677273 195.157478 
L 790.713636 202.27735 
L 792.75 206.058264 
L 796.822727 209.187815 
L 800.895455 212.204499 
L 802.931818 213.908374 
L 804.968182 215.413668 
L 807.004545 216.412241 
L 809.040909 215.329658 
L 811.077273 211.835316 
L 813.113636 211.178362 
L 815.15 212.279384 
L 817.186364 213.66106 
L 821.259091 215.820641 
L 827.368182 218.478152 
L 833.477273 221.873638 
L 835.513636 222.455961 
L 837.55 222.907923 
L 841.622727 224.220733 
L 843.659091 225.317669 
L 845.695455 226.606275 
L 847.731818 227.564981 
L 851.804545 229.065375 
L 853.840909 230.04427 
L 855.877273 231.367666 
L 857.913636 232.546968 
L 861.986364 234.616656 
L 864.022727 235.298965 
L 866.059091 235.848085 
L 870.131818 237.334069 
L 874.204545 238.882429 
L 878.277273 239.965989 
L 882.35 241.491052 
L 886.422727 242.579953 
L 888.459091 243.283117 
L 890.495455 243.813519 
L 896.604545 245.097488 
L 898.640909 246.194808 
L 900.677273 248.113073 
L 904.75 252.399524 
L 906.786364 254.547655 
L 912.895455 260.362359 
L 916.968182 264.108156 
L 919.004545 265.3486 
L 921.040909 265.545816 
L 933.259091 265.550773 
L 933.259091 265.550773 
" clip-path="url(#pcddb3e8042)" style="fill: none; stroke: #67000d; stroke-width: 1.5; stroke-linecap: square"/>
   </g>
   <g id="line2d_33">
    <path d="M 745.980433 256.32 
L 745.980433 34.56 
" clip-path="url(#pcddb3e8042)" style="fill: none; stroke: #000000; stroke-width: 2; stroke-linecap: square"/>
   </g>
   <g id="patch_9">
    <path d="M 663.075 256.32 
L 663.075 34.56 
" style="fill: none; stroke: #000000; stroke-width: 2; stroke-linejoin: miter; stroke-linecap: square"/>
   </g>
   <g id="patch_10">
    <path d="M 663.075 256.32 
L 907.2 256.32 
" style="fill: none; stroke: #000000; stroke-width: 2; stroke-linejoin: miter; stroke-linecap: square"/>
   </g>
  </g>
 </g>
 <defs>
  <clipPath id="pd3aa060c8c">
   <rect x="126" y="34.56" width="244.125" height="221.76"/>
  </clipPath>
  <clipPath id="pf640370d85">
   <rect x="394.5375" y="34.56" width="244.125" height="221.76"/>
  </clipPath>
  <clipPath id="pcddb3e8042">
   <rect x="663.075" y="34.56" width="244.125" height="221.76"/>
  </clipPath>
 </defs>
</svg>
